<?xml version="1.0" encoding="UTF-8" standalone="no"?>
<!-- Created with Inkscape (http://www.inkscape.org/) -->

<svg
   xmlns:dc="http://purl.org/dc/elements/1.1/"
   xmlns:cc="http://creativecommons.org/ns#"
   xmlns:rdf="http://www.w3.org/1999/02/22-rdf-syntax-ns#"
   xmlns:svg="http://www.w3.org/2000/svg"
   xmlns="http://www.w3.org/2000/svg"
   xmlns:xlink="http://www.w3.org/1999/xlink"
   xmlns:sodipodi="http://sodipodi.sourceforge.net/DTD/sodipodi-0.dtd"
   xmlns:inkscape="http://www.inkscape.org/namespaces/inkscape"
   width="1300"
   height="980"
   id="svg2"
   version="1.1"
   inkscape:version="0.48.4 r9939"
   sodipodi:docname="THATSA~1.SVG"
   inkscape:export-filename="C:\Users\Optim\Desktop\thats all folks.png"
   inkscape:export-xdpi="90"
   inkscape:export-ydpi="90">
  <title
     id="title4038">That's all folks</title>
  <defs
     id="defs4">
    <linearGradient
       id="linearGradient4017"
       inkscape:collect="always">
      <stop
         id="stop4019"
         offset="0"
         style="stop-color:#9e0511;stop-opacity:1;" />
      <stop
         style="stop-color:#b42a3e;stop-opacity:1"
         offset="0.68367511"
         id="stop4021" />
      <stop
         style="stop-color:#8e0107;stop-opacity:1"
         offset="0.82871246"
         id="stop4023" />
      <stop
         id="stop4025"
         offset="1"
         style="stop-color:#190004;stop-opacity:1" />
    </linearGradient>
    <linearGradient
       id="linearGradient4007"
       inkscape:collect="always">
      <stop
         id="stop4009"
         offset="0"
         style="stop-color:#9e0511;stop-opacity:1;" />
      <stop
         style="stop-color:#b42a3e;stop-opacity:1"
         offset="0.65531474"
         id="stop4011" />
      <stop
         style="stop-color:#8e0107;stop-opacity:1"
         offset="0.80638939"
         id="stop4013" />
      <stop
         id="stop4015"
         offset="1"
         style="stop-color:#190004;stop-opacity:1" />
    </linearGradient>
    <linearGradient
       inkscape:collect="always"
       id="linearGradient3960">
      <stop
         style="stop-color:#9e0511;stop-opacity:1;"
         offset="0"
         id="stop3962" />
      <stop
         id="stop3970"
         offset="0.73491806"
         style="stop-color:#b42a3e;stop-opacity:1" />
      <stop
         id="stop3968"
         offset="0.85945827"
         style="stop-color:#8e0107;stop-opacity:1" />
      <stop
         style="stop-color:#190004;stop-opacity:1"
         offset="1"
         id="stop3964" />
    </linearGradient>
    <linearGradient
       id="linearGradient3936">
      <stop
         style="stop-color:#cb4d81;stop-opacity:1"
         offset="0"
         id="stop3938" />
      <stop
         id="stop3946"
         offset="0.64572364"
         style="stop-color:#c74d7d;stop-opacity:1;" />
      <stop
         id="stop3940"
         offset="0.91171342"
         style="stop-color:#96020a;stop-opacity:1" />
      <stop
         style="stop-color:#7e0002;stop-opacity:1"
         offset="1"
         id="stop3942" />
    </linearGradient>
    <linearGradient
       id="linearGradient3928">
      <stop
         id="stop3930"
         offset="0"
         style="stop-color:#cb4d81;stop-opacity:1" />
      <stop
         style="stop-color:#c25281;stop-opacity:1"
         offset="0.75073361"
         id="stop3958" />
      <stop
         style="stop-color:#c01b46;stop-opacity:1"
         offset="0.87610406"
         id="stop3932" />
      <stop
         id="stop3934"
         offset="1"
         style="stop-color:#a00818;stop-opacity:1" />
    </linearGradient>
    <linearGradient
       id="linearGradient3886">
      <stop
         style="stop-color:#043e7d;stop-opacity:1;"
         offset="0"
         id="stop3888" />
      <stop
         style="stop-color:#021b36;stop-opacity:1;"
         offset="1"
         id="stop3890" />
    </linearGradient>
    <radialGradient
       inkscape:collect="always"
       xlink:href="#linearGradient3886"
       id="radialGradient3892"
       cx="208.09143"
       cy="599.81384"
       fx="208.09143"
       fy="599.81384"
       r="193.9493"
       gradientUnits="userSpaceOnUse" />
    <radialGradient
       inkscape:collect="always"
       xlink:href="#linearGradient3928"
       id="radialGradient3916"
       cx="208.09143"
       cy="606.75732"
       fx="208.09143"
       fy="606.75732"
       r="193.9493"
       gradientUnits="userSpaceOnUse"
       gradientTransform="matrix(0.99333107,0,0,0.98075219,1.3877549,11.545113)" />
    <radialGradient
       inkscape:collect="always"
       xlink:href="#linearGradient3936"
       id="radialGradient3924"
       cx="208.09143"
       cy="610.0827"
       fx="208.09143"
       fy="610.0827"
       r="193.9493"
       gradientUnits="userSpaceOnUse" />
    <radialGradient
       inkscape:collect="always"
       xlink:href="#linearGradient3960"
       id="radialGradient3966"
       cx="208.09143"
       cy="604.94415"
       fx="208.09143"
       fy="604.94415"
       r="193.9493"
       gradientUnits="userSpaceOnUse"
       gradientTransform="matrix(1.073302,-5.2222048e-8,5.1820436e-8,1.0650478,-15.253539,-39.016547)" />
    <radialGradient
       inkscape:collect="always"
       xlink:href="#linearGradient3960"
       id="radialGradient3989"
       cx="208.09143"
       cy="599.81384"
       fx="208.09143"
       fy="599.81384"
       r="193.9493"
       gradientUnits="userSpaceOnUse" />
    <radialGradient
       inkscape:collect="always"
       xlink:href="#linearGradient4017"
       id="radialGradient3997"
       cx="208.09143"
       cy="601.78235"
       fx="208.09143"
       fy="601.78235"
       r="193.9493"
       gradientUnits="userSpaceOnUse"
       gradientTransform="matrix(0.9760926,0,0,0.98005807,4.974924,11.887373)" />
    <radialGradient
       inkscape:collect="always"
       xlink:href="#linearGradient4007"
       id="radialGradient4005"
       cx="208.09143"
       cy="603.05603"
       fx="208.09143"
       fy="603.05603"
       r="193.9493"
       gradientUnits="userSpaceOnUse"
       gradientTransform="matrix(0.96559639,0,0,0.96020202,7.1590969,24.000411)" />
    <clipPath
       clipPathUnits="userSpaceOnUse"
       id="clipPath3801">
      <rect
         style="fill:none;stroke:#000000;stroke-width:2.46165705;stroke-miterlimit:4;stroke-opacity:1;stroke-dasharray:none"
         id="rect3803"
         width="1598.8647"
         height="1204.9996"
         x="1214.6589"
         y="-58.685917" />
    </clipPath>
  </defs>
  <sodipodi:namedview
     id="base"
     pagecolor="#ffffff"
     bordercolor="#666666"
     borderopacity="1.0"
     inkscape:pageopacity="0.0"
     inkscape:pageshadow="2"
     inkscape:zoom="0.35"
     inkscape:cx="973.36073"
     inkscape:cy="296.09551"
     inkscape:document-units="px"
     inkscape:current-layer="layer1"
     showgrid="false"
     inkscape:window-width="1920"
     inkscape:window-height="1018"
     inkscape:window-x="-8"
     inkscape:window-y="-8"
     inkscape:window-maximized="1" />
  <metadata
     id="metadata7">
    <rdf:RDF>
      <cc:Work
         rdf:about="">
        <dc:format>image/svg+xml</dc:format>
        <dc:type
           rdf:resource="http://purl.org/dc/dcmitype/StillImage" />
        <dc:title>That's all folks</dc:title>
        <dc:date>29/12/2014</dc:date>
        <dc:creator>
          <cc:Agent>
            <dc:title>Nicolás Castro</dc:title>
          </cc:Agent>
        </dc:creator>
        <dc:rights>
          <cc:Agent>
            <dc:title>Open source</dc:title>
          </cc:Agent>
        </dc:rights>
        <dc:publisher>
          <cc:Agent>
            <dc:title />
          </cc:Agent>
        </dc:publisher>
        <dc:language>Ingles</dc:language>
      </cc:Work>
    </rdf:RDF>
  </metadata>
  <g
     inkscape:label="Capa 1"
     inkscape:groupmode="layer"
     id="layer1"
     transform="translate(0,-72.36217)">
    <g
       id="g4027"
       transform="matrix(0.81246083,0,0,0.81246083,-985.30945,120.97625)"
       clip-path="url(#clipPath3801)">
      <path
         transform="matrix(5.5518023,0,0,5.5518023,858.8089,-2786.234)"
         d="m 402.04073,599.81384 c 0,107.11524 -86.83406,193.9493 -193.9493,193.9493 -107.11524,0 -193.949294,-86.83406 -193.949294,-193.9493 0,-107.11524 86.834054,-193.94929 193.949294,-193.94929 107.11524,0 193.9493,86.83405 193.9493,193.94929 z"
         sodipodi:ry="193.9493"
         sodipodi:rx="193.9493"
         sodipodi:cy="599.81384"
         sodipodi:cx="208.09143"
         id="path3875"
         style="fill:url(#radialGradient4005);fill-opacity:1;stroke:none"
         sodipodi:type="arc" />
      <path
         sodipodi:type="arc"
         style="fill:url(#radialGradient3997);fill-opacity:1;stroke:none"
         id="path3873"
         sodipodi:cx="208.09143"
         sodipodi:cy="599.81384"
         sodipodi:rx="193.9493"
         sodipodi:ry="193.9493"
         d="m 402.04073,599.81384 c 0,107.11524 -86.83406,193.9493 -193.9493,193.9493 -107.11524,0 -193.949294,-86.83406 -193.949294,-193.9493 0,-107.11524 86.834054,-193.94929 193.949294,-193.94929 107.11524,0 193.9493,86.83405 193.9493,193.94929 z"
         transform="matrix(4.312219,0,0,4.312219,1116.7556,-2042.7148)" />
      <path
         transform="matrix(3.3643024,0,0,3.3643024,1314.0089,-1474.1413)"
         d="m 402.04073,599.81384 c 0,107.11524 -86.83406,193.9493 -193.9493,193.9493 -107.11524,0 -193.949294,-86.83406 -193.949294,-193.9493 0,-107.11524 86.834054,-193.94929 193.949294,-193.94929 107.11524,0 193.9493,86.83405 193.9493,193.94929 z"
         sodipodi:ry="193.9493"
         sodipodi:rx="193.9493"
         sodipodi:cy="599.81384"
         sodipodi:cx="208.09143"
         id="path3871"
         style="fill:url(#radialGradient3989);fill-opacity:1;stroke:none"
         sodipodi:type="arc" />
      <path
         sodipodi:type="arc"
         style="fill:url(#radialGradient3966);fill-opacity:1;stroke:none"
         id="path3869"
         sodipodi:cx="208.09143"
         sodipodi:cy="599.81384"
         sodipodi:rx="193.9493"
         sodipodi:ry="193.9493"
         d="m 402.04073,599.81384 c 0,107.11524 -86.83406,193.9493 -193.9493,193.9493 -107.11524,0 -193.949294,-86.83406 -193.949294,-193.9493 0,-107.11524 86.834054,-193.94929 193.949294,-193.94929 107.11524,0 193.9493,86.83405 193.9493,193.94929 z"
         transform="matrix(2.5622191,0,0,2.5622191,1480.9156,-993.04062)" />
      <path
         transform="matrix(1.9476358,0,0,1.9476358,1608.8051,-624.40504)"
         d="m 402.04073,599.81384 c 0,107.11524 -86.83406,193.9493 -193.9493,193.9493 -107.11524,0 -193.949294,-86.83406 -193.949294,-193.9493 0,-107.11524 86.834054,-193.94929 193.949294,-193.94929 107.11524,0 193.9493,86.83405 193.9493,193.94929 z"
         sodipodi:ry="193.9493"
         sodipodi:rx="193.9493"
         sodipodi:cy="599.81384"
         sodipodi:cx="208.09143"
         id="path3867"
         style="fill:url(#radialGradient3924);fill-opacity:1;stroke:none"
         sodipodi:type="arc" />
      <path
         sodipodi:type="arc"
         style="fill:url(#radialGradient3916);fill-opacity:1;stroke:none"
         id="path3865"
         sodipodi:cx="208.09143"
         sodipodi:cy="599.81384"
         sodipodi:rx="193.9493"
         sodipodi:ry="193.9493"
         d="m 402.04073,599.81384 c 0,107.11524 -86.83406,193.9493 -193.9493,193.9493 -107.11524,0 -193.949294,-86.83406 -193.949294,-193.9493 0,-107.11524 86.834054,-193.94929 193.949294,-193.94929 107.11524,0 193.9493,86.83405 193.9493,193.94929 z"
         transform="matrix(1.4684691,0,0,1.4684691,1708.5156,-336.99425)" />
      <path
         transform="matrix(1.0726358,0,0,1.0726358,1790.8851,-99.567948)"
         d="m 402.04073,599.81384 c 0,107.11524 -86.83406,193.9493 -193.9493,193.9493 -107.11524,0 -193.949294,-86.83406 -193.949294,-193.9493 0,-107.11524 86.834054,-193.94929 193.949294,-193.94929 107.11524,0 193.9493,86.83405 193.9493,193.94929 z"
         sodipodi:ry="193.9493"
         sodipodi:rx="193.9493"
         sodipodi:cy="599.81384"
         sodipodi:cx="208.09143"
         id="path3095"
         style="fill:url(#radialGradient3892);fill-opacity:1;stroke:none"
         sodipodi:type="arc" />
      <path
         inkscape:connector-curvature="0"
         id="path3884"
         d="m 1432.2726,799.91906 c -2.0152,-0.39247 -4.8118,-1.46572 -6.2148,-2.385 -1.403,-0.91928 -3.2694,-1.67141 -4.1474,-1.67141 -2.0616,0 -18.4497,-16.2831 -21.6386,-21.5 -3.7169,-6.08051 -5.8353,-15.31098 -5.8353,-25.42588 0,-4.92585 0.3909,-9.19767 0.8686,-9.49294 0.4778,-0.29527 1.1729,-2.45933 1.5448,-4.80902 1.208,-7.63394 12.7734,-22.75145 21.5866,-28.21662 8.5727,-5.31604 18.3229,-6.99128 23.9012,-4.10662 3.2873,1.69994 9.0988,8.04287 9.0988,9.93089 0,2.33734 -3.5707,4.62019 -7.2267,4.62019 -1.9697,0 -5.5195,-1.11496 -7.9212,-2.48795 -2.3937,-1.36838 -5.7518,-2.49338 -7.4626,-2.5 -6.0411,-0.0234 -14.6828,7.74608 -19.4511,17.48795 -2.5917,5.29481 -2.9369,7.06559 -2.9376,15.06634 0,11.08629 1.4513,19.42061 4.2297,24.27282 1.1529,2.01346 2.7631,4.96328 3.5781,6.55516 2.6411,5.15843 11.4612,12.986 16.745,14.86063 7.8578,2.78789 23.6144,1.69885 32.9464,-2.27713 1.1,-0.46866 3.0695,-1.15381 4.3766,-1.52255 2.9617,-0.83547 20.1234,-18.24911 20.1234,-20.41879 0,-0.87531 0.7875,-2.7041 1.75,-4.06397 2.2126,-3.12613 3.8223,-7.35669 12.3553,-32.47251 2.0352,-5.99021 5.083,-17.10343 5.8965,-21.5 1.3595,-7.3473 2.961,-13.02739 4.5268,-16.05538 0.8093,-1.56492 1.4714,-4.16838 1.4714,-5.78548 0,-1.61711 1.1837,-7.37695 2.6305,-12.79966 1.4468,-5.42272 2.9972,-11.65948 3.4454,-13.85948 0.4481,-2.2 1.3139,-6.025 1.9241,-8.5 1.877,-7.61365 2.8721,-12.25293 3.9684,-18.5 0.5791,-3.3 1.6706,-7.575 2.4256,-9.5 0.7549,-1.925 1.9137,-6.425 2.575,-10 0.6613,-3.575 2.001,-8.525 2.9771,-11 0.9761,-2.475 2.5838,-6.975 3.5726,-10 4.2167,-12.89949 8.9632,-21.29165 15.5824,-27.55085 6.5841,-6.22599 11.7187,-9.11602 14.3809,-8.09442 3.0635,1.17558 1.44,4.46955 -4.982,10.10771 -3.575,3.13868 -6.5,6.16015 -6.5,6.71439 0,0.55424 -0.9,2.15188 -2,3.5503 -1.1,1.39842 -2,3.3444 -2,4.3244 0,0.97999 -0.3375,1.9318 -0.75,2.11514 -0.9911,0.44049 -4.7165,9.17222 -6.3287,14.83333 -0.7049,2.475 -1.594,4.95 -1.9758,5.5 -0.3818,0.55 -0.9481,2.35 -1.2583,4 -1.3239,7.0403 -2.4089,11.13353 -3.4779,13.12035 -0.6275,1.16619 -1.5866,4.54119 -2.1314,7.5 -0.5448,2.95881 -1.6961,9.20465 -2.5585,13.87965 -0.8624,4.675 -1.9519,9.4 -2.4212,10.5 -0.9659,2.26413 -2.7336,10.03315 -3.6406,16 -1.7566,11.55696 -5.7327,28.80578 -11.4103,49.5 -1.7354,6.325 -3.5728,13.44169 -4.0832,15.81487 -0.9354,4.3497 -3.447,12.56487 -5.254,17.18513 -0.5377,1.375 -1.3049,3.4 -1.7049,4.5 -0.3999,1.1 -2.6017,5.90048 -4.8929,10.66773 -3.4259,7.12824 -5.6882,10.17309 -12.7372,17.14327 -8.3881,8.29431 -12.2462,10.83189 -21.4094,14.08159 -8.4998,3.01445 -25.5118,4.3422 -34.1296,2.66382 z m 131.6296,-62.46844 c -1.746,-2.66468 -1.5892,-3.91679 3.2666,-26.08797 1.3251,-6.05 2.8039,-13.025 3.2863,-15.5 0.4824,-2.475 1.4,-6.075 2.0391,-8 0.6392,-1.925 1.5299,-5.525 1.9795,-8 1.5462,-8.51215 4.0058,-18.34697 4.8575,-19.4226 0.4691,-0.59257 1.1548,-3.3274 1.5236,-6.0774 0.3688,-2.75 1.0581,-6.125 1.5317,-7.5 0.7908,-2.29619 2.9957,-11.83606 4.5646,-19.75 1.0815,-5.45529 -2.2994,-4.08263 -9.5965,3.89622 -5.0237,5.49312 -7.0056,7.03419 -8.3719,6.50989 -1.3874,-0.53239 -1.6531,-1.37135 -1.1815,-3.72955 0.3347,-1.67345 1.2895,-3.72366 2.1219,-4.55602 0.8324,-0.83237 1.5149,-1.81875 1.5168,-2.19197 0,-0.37321 2.7159,-3.60357 6.0311,-7.17857 3.3152,-3.575 8.1173,-9.425 10.6713,-13 2.5539,-3.575 5.4149,-7.4 6.3576,-8.5 0.9427,-1.1 1.9622,-3.575 2.2655,-5.5 1.2248,-7.77339 2.7296,-14.90195 4.7496,-22.5 2.9061,-10.93062 4.5001,-17.68595 6.9519,-29.46163 0.6254,-3.0039 1.7744,-6.69405 2.5534,-8.20034 0.7789,-1.50629 1.4273,-3.77356 1.4408,-5.03837 0.028,-2.65567 3.0504,-11.86195 5.3889,-16.41675 2.0262,-3.94656 8.8272,-11.70608 12.639,-14.4203 2.8329,-2.01718 2.9901,-2.02509 5.3698,-0.27031 4.4652,3.29262 5.7155,7.82845 5.7546,20.87735 0.038,12.53353 -1.4868,23.41874 -3.8013,27.14517 -0.7566,1.21815 -1.3756,2.81934 -1.3756,3.5582 0,1.15093 -3.7111,8.84025 -9.7623,20.22698 -0.8768,1.65 -3.2865,5.025 -5.3549,7.5 -2.0684,2.475 -5.0276,6.39033 -6.5761,8.70074 -1.5485,2.3104 -4.6257,6.1354 -6.8383,8.5 -5.6503,6.0388 -7.1545,8.71728 -7.769,13.83431 -0.2948,2.45572 -1.7032,9.63995 -3.1295,15.96495 -4.0641,18.02138 -2.548,21.01135 5.3242,10.5 6.845,-9.13989 22.2403,-24.24464 25.5601,-25.07787 2.4743,-0.62101 3.3421,-0.22094 6.1379,2.82981 4.1846,4.56623 5.0479,10.08584 3.4572,22.10534 -1.3786,10.41757 -1.1746,9.08044 -5.1185,33.54833 -1.6318,10.12308 -2.6996,19.24757 -2.373,20.27664 0.9218,2.90413 4.9508,5.15111 7.1377,3.9807 3.2905,-1.76099 17.3045,-18.10125 17.3045,-20.17688 0,-0.64753 0.863,-2.38935 1.9179,-3.87071 1.4555,-2.04412 2.0785,-5.21509 2.5844,-13.15437 1.3566,-21.28806 6.1836,-42.05733 11.145,-47.95361 1.294,-1.53785 2.3527,-3.34046 2.3527,-4.00581 0,-0.66534 2.7115,-3.86288 6.0255,-7.10564 5.9203,-5.79307 6.1244,-5.89593 11.6962,-5.89593 4.471,0 6.4606,0.54733 9.4038,2.58695 5.8215,4.0343 6.872,3.32967 12.0564,-8.08695 0.4995,-1.1 1.7691,-3.125 2.8212,-4.5 1.5624,-2.04192 2.2413,-2.29821 3.7049,-1.39872 2.0622,1.26732 3.0141,8.07666 1.3602,9.7305 -0.5875,0.58752 -1.0682,2.08634 -1.0682,3.33071 0,1.24437 -0.8531,4.64187 -1.8957,7.55 -1.0426,2.90813 -2.634,9.33751 -3.5364,14.28751 -0.9023,4.95 -2.0816,10.94627 -2.6205,13.32504 -0.5389,2.37877 -1.266,8.35555 -1.6156,13.28173 -0.959,13.5104 1.561,16.58269 10.4697,12.764 4.2542,-1.82357 11.4956,-7.05715 15.1866,-10.97588 0.8316,-0.88281 3.7018,-3.87647 6.3784,-6.65259 3.2208,-3.34066 5.1497,-6.34849 5.7043,-8.89489 0.4608,-2.11607 1.333,-5.87241 1.9383,-8.34741 0.9671,-3.95466 2.4534,-11.16571 6.0802,-29.5 1.6664,-8.42366 2.7509,-14.76878 3.4186,-20 0.351,-2.75 1.0241,-5.9 1.4959,-7 0.4717,-1.1 1.0662,-4.25 1.321,-7 0.2549,-2.75 1.0572,-8.28902 1.783,-12.30894 1.1386,-6.30662 1.1199,-7.43228 -0.1358,-8.20839 -1.6918,-1.04555 -5.5341,-0.32909 -8.6516,1.61322 -1.1988,0.74688 -4.0213,1.65245 -6.2722,2.01239 -2.2509,0.35993 -4.3341,1.04532 -4.6294,1.52307 -0.2952,0.47776 -1.3496,0.86865 -2.343,0.86865 -0.9933,0 -2.8793,0.83594 -4.1909,1.85764 -1.3117,1.02171 -4.1849,2.44001 -6.3849,3.15178 -3.5657,1.15363 -9.8135,3.76032 -14.7364,6.14828 -0.9551,0.46327 -2.2143,0.8423 -2.7983,0.8423 -0.5841,0 -2.9247,0.9 -5.2014,2 -4.9675,2.40004 -7.0939,2.5122 -8.7939,0.46384 -1.0659,-1.28432 -0.8223,-2.00861 1.4862,-4.41814 2.3705,-2.47425 13.658,-8.69561 20.0438,-11.04758 5.1052,-1.88031 13.705,-5.60731 21.0762,-9.13406 4.4419,-2.12524 8.7169,-3.87407 9.5,-3.8863 0.7831,-0.0122 2.5488,-0.90222 3.9238,-1.97776 1.375,-1.07554 3.175,-1.96722 4,-1.9815 1.7665,-0.0306 8.1762,-3.77475 9.2347,-5.39434 0.4041,-0.61829 0.7416,-2.3067 0.75,-3.75204 0.022,-3.78 2.5322,-9.25227 6.1168,-13.33489 3.6429,-4.14911 4.3564,-4.29427 6.3266,-1.28723 1.085,1.6561 1.2527,3.23204 0.635,5.97048 -0.5978,2.65022 -0.4763,4.0216 0.4221,4.76725 1.3376,1.11009 2.4602,0.84664 9.3282,-2.18898 7.0296,-3.10706 10.5005,-3.15795 13.2843,-0.1948 l 2.3985,2.55318 -3.7334,3.42143 c -2.0534,1.88179 -4.7525,3.43145 -5.9981,3.44368 -1.2456,0.0122 -3.3897,0.90222 -4.7647,1.97776 -1.375,1.07554 -3.175,1.99544 -4,2.04422 -0.825,0.0488 -3.7394,1.33456 -6.4764,2.85729 -3.9311,2.18704 -5.15,3.48594 -5.8029,6.18355 -0.4546,1.87822 -1.2326,4.98994 -1.7289,6.91494 -0.4962,1.925 -1.1626,4.85 -1.4807,6.5 -1.6853,8.74162 -2.9558,14.55489 -4.2617,19.5 -1.4089,5.3357 -2.2766,9.53542 -4.3385,21 -1.8555,10.31746 -2.7437,14.49842 -3.9298,18.5 -0.6521,2.2 -1.4152,5.8 -1.6958,8 -0.2806,2.2 -0.8492,4.45 -1.2636,5 -0.4143,0.55 -1.047,5.74654 -1.406,11.54787 -0.359,5.80133 -0.8444,11.54332 -1.0787,12.75998 -0.6152,3.19461 1.3228,8.01287 3.501,8.70421 1.029,0.32658 3.1289,-0.18318 4.6664,-1.1328 3.8888,-2.40173 11.2359,-10.54421 11.2685,-12.48847 0.015,-0.88507 1.7366,-3.58507 3.8259,-6 2.0893,-2.41493 4.4112,-6.41579 5.1598,-8.89079 0.7486,-2.475 2.5672,-7.2 4.0414,-10.5 1.4742,-3.3 3.25,-8.025 3.9462,-10.5 0.6963,-2.475 2.1182,-6.23003 3.1599,-8.3445 1.0416,-2.11448 1.8939,-4.72532 1.8939,-5.80188 0,-1.07656 0.9771,-3.84654 2.1713,-6.1555 3.4404,-6.65197 3.8287,-7.58047 3.8287,-9.15413 0,-0.81574 0.8309,-2.95934 1.8464,-4.76357 1.0156,-1.80423 3.2989,-5.85088 5.0741,-8.99256 2.7386,-4.8465 12.1304,-14.49881 15.2106,-15.6324 1.5094,-0.55551 3.8689,1.92211 3.8689,4.06261 0,1.08526 -0.8037,3.16766 -1.786,4.62756 -3.4629,5.14643 -4.4508,7.9925 -3.9271,11.31299 1.0895,6.90724 2.6386,11.15911 5.893,16.17411 1.8443,2.842 4.0046,6.51727 4.8006,8.16727 0.7961,1.65 2.2511,4.19447 3.2335,5.65437 0.9823,1.4599 1.786,3.79585 1.786,5.19098 0,1.39514 0.45,2.81473 1,3.15465 1.3175,0.81426 1.3175,22.18574 0,23 -0.55,0.33992 -1.0142,1.60398 -1.0316,2.80902 -0.034,2.38449 -2.2463,5.14753 -8.7588,10.94098 -4.0063,3.56401 -4.5577,3.75 -11.1179,3.75 -6.4659,0 -7.1761,-0.22865 -11.23,-3.61556 -6.1309,-5.12217 -7.7308,-7.1847 -8.8779,-11.44444 -2.0476,-7.60441 3.167,-12.41665 6.4905,-5.98966 0.8391,1.62269 1.5257,3.7724 1.5257,4.77714 0,1.00474 1.3246,3.27709 2.9436,5.04966 2.4826,2.71804 3.6494,3.22286 7.4491,3.22286 3.9286,0 4.8101,-0.41619 6.8841,-3.25 3.4399,-4.70004 5.1165,-10.8533 4.3417,-15.93417 -0.8175,-5.36066 -3.6452,-14.99254 -4.7753,-16.26583 -0.4638,-0.5225 -0.8432,-1.895 -0.8432,-3.05 0,-1.155 -0.3976,-2.5275 -0.8835,-3.05 -1.4062,-1.51191 -5.1165,-12.83302 -5.1165,-15.61159 0,-1.39064 -0.8222,-3.27251 -1.8271,-4.18193 -1.7102,-1.54775 -1.966,-1.50558 -4,0.65947 -1.1951,1.27212 -2.1729,3.05776 -2.1729,3.96808 0,0.91033 -0.945,3.35632 -2.0999,5.43555 -1.155,2.07923 -3.0112,5.58042 -4.125,7.78042 -1.1137,2.2 -2.4198,4.675 -2.9024,5.5 -0.4826,0.825 -1.3384,2.625 -1.9017,4 -0.5633,1.375 -2.1373,4.5859 -3.4976,7.13533 -1.3604,2.54943 -2.4734,5.14183 -2.4734,5.7609 0,2.44663 -11.4758,26.42383 -13.4184,28.03607 -0.8699,0.72192 -1.5816,1.94143 -1.5816,2.71002 0,3.85633 -11.934,18.26227 -18.5,22.33188 -6.2468,3.8718 -13.1088,-0.87532 -14.1658,-9.7999 -0.792,-6.68759 -2.8053,-8.55717 -5.5372,-5.14187 -9.2147,11.51999 -25.4156,26.96757 -28.2827,26.96757 -0.7545,0 -3.0419,-1.575 -5.083,-3.5 -5.1984,-4.90271 -7.3261,-4.46868 -8.8251,1.80016 -0.3682,1.54009 -3.5719,5.70259 -7.1193,9.25 l -6.4499,6.44984 -5.9798,0 c -5.6692,0 -6.1898,-0.21195 -10.0186,-4.07921 -2.2212,-2.24356 -4.0386,-4.66346 -4.0386,-5.37755 0,-2.07983 -2.7276,-3.76447 -4.952,-3.05847 -1.1264,0.3575 -2.048,1.32058 -2.048,2.14017 0,2.47939 -8.2473,16.37453 -10.2139,17.20839 -0.4324,0.18334 -0.7861,0.76406 -0.7861,1.2905 0,1.60568 -4.1109,6.63056 -7.9457,9.71232 -1.9959,1.6039 -5.4484,3.22358 -7.6723,3.59931 -3.5816,0.60511 -4.4055,0.34496 -7.2128,-2.27737 -3.1474,-2.94011 -3.1691,-3.02836 -3.1495,-12.8093 0.011,-5.41683 0.7311,-13.44879 1.6007,-17.84879 2.7251,-13.78897 5.7357,-40.94503 4.9058,-44.25148 -0.3197,-1.2741 -1.6737,-2.81423 -3.0087,-3.42251 -3.6477,-1.66197 -7.5971,0.43521 -14.2865,7.58622 -5.1558,5.51153 -17.231,22.5054 -17.231,24.24976 0,0.37429 -0.6763,1.42783 -1.5029,2.34119 -1.3495,1.49117 -2.2031,4.89326 -4.014,15.99682 -0.3139,1.925 -0.9886,5.07709 -1.4994,7.00464 -1.1776,4.44435 -4.3227,20.24795 -6.883,34.58627 -2.0002,11.2019 -4.6721,17.57416 -8.149,19.43493 -2.5169,1.34704 -2.6997,1.28848 -4.486,-1.43787 z m 125.3243,-67.69425 c 7.3715,-8.0024 8.9802,-12.01836 9.683,-24.17202 0.5358,-9.26736 1.9035,-21.00325 4.1122,-35.28714 0.5681,-3.67405 0.2941,-4.42015 -2.8464,-7.75 -2.2508,-2.38657 -4.3792,-3.68456 -6.0418,-3.68456 -5.5566,0 -11.3959,3.72207 -14.0388,8.94857 -0.7097,1.40329 -1.7638,3.45143 -2.3426,4.55143 -3.643,6.92345 -5.2791,14.07777 -7.8894,34.5 -2.2492,17.59651 -1.0456,24.88321 4.5738,27.69033 4.5641,2.27997 9.8507,0.56546 14.79,-4.79661 z m -79.1513,-95.65903 c 1.6172,-1.04351 11.2706,-16.65978 15.0206,-24.29887 5.671,-11.55222 7.9821,-29.83201 4.2249,-33.41658 -1.6281,-1.55332 -5.8806,-0.32707 -5.8904,1.69854 0,0.70522 -0.5847,2.40722 -1.2919,3.78222 -1.7134,3.3317 -4.8098,12.20353 -8.7253,25 -1.7671,5.775 -4.3253,13.96475 -5.685,18.19944 -1.3597,4.23469 -2.18,8.17219 -1.8228,8.75 0.7521,1.21696 2.5367,1.33903 4.1699,0.28525 z m -150.6387,57.64458 c -3.7726,-1.49992 -7.908,-5.85507 -10.3304,-10.87927 -1.7657,-3.66227 -2.1509,-6.17546 -2.0689,-13.5 0.139,-12.42524 2.8115,-18.12396 13.3008,-28.36115 7.6052,-7.42246 9.6562,-8.8103 19.0985,-12.92342 10.7652,-4.6894 12.1605,-5.21543 13.8339,-5.21543 0.9714,0 2.1936,-0.39452 2.7161,-0.87671 1.2219,-1.12762 11.3723,-4.50873 18.45,-6.1457 3.025,-0.69963 7.0683,-2.10581 8.9852,-3.12483 1.9169,-1.01902 4.9723,-1.85276 6.7898,-1.85276 1.8176,0 4.9743,-0.82926 7.0148,-1.84281 2.0406,-1.01354 5.9602,-2.42988 8.7102,-3.14742 2.75,-0.71754 5.4275,-1.68828 5.95,-2.1572 0.5225,-0.46891 1.7661,-0.85257 2.7636,-0.85257 0.9974,0 2.5949,-0.4271 3.55,-0.94912 0.955,-0.52201 4.8864,-2.36743 8.7364,-4.10092 15.5505,-7.00176 20.1668,-9.49921 23.7485,-12.84809 2.7756,-2.59516 4.0404,-3.213 4.873,-2.38041 0.8326,0.8326 0.5673,1.90684 -1.022,4.13884 -3.5275,4.95385 -14.0852,13.96275 -19.004,16.2161 -2.5275,1.1579 -7.2955,3.38499 -10.5955,4.9491 -8.2096,3.89114 -13.1399,5.97384 -14.1511,5.97793 -0.4669,0.002 -4.2239,1.38724 -8.3489,3.07857 -9.3136,3.81873 -13.8269,5.35237 -21.5706,7.32968 -6.2094,1.58554 -31.3252,9.83319 -34.9294,11.47028 -11.9501,5.42798 -14.5285,7.0453 -19.5496,12.2628 -4.1461,4.30829 -5.8531,6.97914 -6.7497,10.56096 -3.8296,15.29891 0.701,26.13559 11.6595,27.88791 4.1205,0.6589 12.3881,-0.93537 14.8898,-2.87125 2.6629,-2.0606 1.1807,2.19306 -1.8043,5.17809 -5.0691,5.06906 -18.1514,7.6801 -24.9457,4.9788 z m 430.2417,-18.53096 c -1.7921,-0.88339 -4.6286,-3.46064 -6.3034,-5.72723 l -3.0451,-4.12108 0.4384,-16.5 c 0.5617,-21.1412 1.5117,-26.3657 7.1826,-39.5 0.7124,-1.65 2.0152,-4.74744 2.8951,-6.8832 0.909,-2.20617 5.1609,-7.38859 9.8453,-12 6.3035,-6.2052 9.4546,-8.52894 13.3796,-9.8668 6.7613,-2.30458 8.2127,-2.21805 12.5806,0.75 4.873,3.31127 6.4405,3.16173 10.4823,-1 1.8696,-1.925 4.2775,-3.5 5.351,-3.5 1.6577,0 1.9519,0.70513 1.9519,4.679 0,4.46703 -1.2316,9.81408 -3.1228,13.55743 -0.4824,0.95504 -0.8772,2.74234 -0.8772,3.97179 0,2.12695 -2.4299,11.02203 -5.6798,20.79178 -0.8233,2.475 -2.207,9.55686 -3.0748,15.73747 -2.0771,14.79349 -1.3888,16.72294 5.7222,16.03967 5.6921,-0.54694 10.5567,-4.41175 22.8094,-18.1215 7.926,-8.86857 9.0303,-11.40144 10.3132,-23.65564 2.1482,-20.52067 3.7486,-31.83027 4.7756,-33.74923 0.6238,-1.16561 1.1342,-3.93174 1.1342,-6.14697 0,-2.21523 0.9184,-8.65731 2.0409,-14.31574 4.0393,-20.36173 6.1918,-30.19363 6.946,-31.72725 1.1252,-2.28802 3.0131,-8.50987 3.0131,-9.93011 0,-0.67502 0.9,-3.0901 2,-5.36683 1.1,-2.27674 2,-4.99807 2,-6.0474 0,-1.04934 0.6505,-3.10231 1.4456,-4.56218 0.795,-1.45986 2.2019,-4.45429 3.1264,-6.65429 6.4836,-15.42944 9.9763,-21.1683 17.4975,-28.75 8.8038,-8.87472 11.1896,-9.60766 15.315,-4.70493 1.4092,1.67479 3.0775,4.76481 3.7072,6.86671 1.5587,5.20255 0.5764,21.84817 -2.1003,35.58822 -1.1786,6.05 -2.3716,12.35 -2.6512,14 -0.2795,1.65 -1.1108,4.35 -1.8471,6 -0.7364,1.65 -1.6484,4.24175 -2.0268,5.75945 -0.3783,1.5177 -1.088,3.00675 -1.5771,3.30902 -0.489,0.30226 -0.8892,1.62145 -0.8892,2.93153 0,1.31008 -0.45,2.66008 -1,3 -0.55,0.33992 -1,1.47779 -1,2.5286 0,1.05081 -0.9,3.51294 -2,5.4714 -1.1,1.95846 -2,4.21011 -2,5.00366 0,0.79356 -0.9658,3.59238 -2.1463,6.21959 -1.1805,2.62721 -2.4525,5.67675 -2.8268,6.77675 -0.3742,1.1 -1.6596,4.025 -2.8564,6.5 -1.1968,2.475 -2.1748,4.87902 -2.1733,5.34227 0,0.46325 -0.8972,1.98644 -1.9972,3.38486 -1.1,1.39842 -2,3.1435 -2,3.87794 0,0.73444 -2.25,4.65153 -5,8.70463 -2.75,4.05311 -5,7.82177 -5,8.37481 0,0.55303 -0.9,1.82 -2,2.81549 -1.1,0.99549 -2,2.227 -2,2.73669 0,0.50969 -1.5489,2.81689 -3.4419,5.1271 -4.5234,5.52021 -5.5603,8.5021 -5.5471,15.95131 0.018,10.29189 0.9007,13.5879 4.0776,15.23073 3.9461,2.04061 6.2381,1.83127 12.5279,-1.14425 4.1555,-1.9659 9.7393,-6.79974 22.938,-19.85747 15.7156,-15.54764 17.4479,-17.59545 17.47,-20.65158 0.013,-1.86589 0.501,-5.41753 1.0835,-7.89253 0.5826,-2.475 1.6865,-9.45 2.4533,-15.5 3.146,-24.8224 4.2647,-32.13707 5.3246,-34.8151 0.6127,-1.5483 1.1141,-4.11385 1.1141,-5.70121 0,-1.58736 0.726,-5.49557 1.6134,-8.6849 0.8873,-3.18933 1.9827,-7.82379 2.4341,-10.29879 1.6048,-8.79759 2.9322,-14.15904 4.2851,-17.30809 0.7543,-1.75555 1.8386,-4.99191 2.4096,-7.19191 1.1884,-4.57827 3.1267,-10.19958 4.3918,-12.73643 0.4763,-0.95504 0.866,-2.25482 0.866,-2.8884 0,-3.01981 10.7848,-22.37945 14.9205,-26.78359 7.2829,-7.75562 10.8805,-8.8128 15.8267,-4.65081 4.24,3.56773 5.2606,8.41678 5.1932,24.67525 -0.07,16.90132 -1.0217,23.27 -5.8852,39.38398 -0.996,3.3 -2.397,8.025 -3.1132,10.5 -0.7162,2.475 -1.5901,4.95 -1.942,5.5 -0.3519,0.55 -1.2221,3.025 -1.9339,5.5 -0.7117,2.475 -1.6474,5.4 -2.0792,6.5 -0.4318,1.1 -1.359,3.575 -2.0606,5.5 -0.7015,1.925 -2.0969,4.69447 -3.1009,6.15437 -1.004,1.4599 -1.848,3.2599 -1.8757,4 -0.027,0.7401 -1.8093,4.49563 -3.9592,8.34563 -2.15,3.85 -4.7421,8.575 -5.7603,10.5 -4.27,8.07296 -4.3671,8.21491 -13.6745,20 -8.2626,10.46226 -9.8255,14.25018 -11.5154,27.909 -1.5857,12.81743 -1.367,18.48534 0.7884,20.43601 2.387,2.1602 3.1265,2.1023 9.3928,-0.73542 3.866,-1.75072 8.4714,-5.61676 17.2099,-14.4469 6.5623,-6.63107 12.2998,-11.82883 12.75,-11.55057 1.3676,0.84519 0.8815,4.65254 -1.1714,9.17577 -2.1625,4.76458 -18.458,21.48783 -26.6965,27.39724 -2.8256,2.02683 -7.4223,4.36364 -10.2148,5.19293 l -5.0773,1.50779 -3.4424,-3.24655 c -1.8933,-1.7856 -3.749,-4.46855 -4.1239,-5.9621 -0.3793,-1.51147 0.2071,-7.6743 1.3226,-13.89889 2.027,-11.31108 1.991,-13.77831 -0.2008,-13.77831 -1.2079,0 -9.331,6.99542 -23.6849,20.39686 -16.1136,15.04445 -24.1245,20.60314 -29.6921,20.60314 -6.7642,0 -9.361,-3.18759 -10.1754,-12.49042 -0.4162,-4.7537 -0.9003,-6.06195 -2.3447,-6.33685 -1.2416,-0.23629 -6.4871,4.22373 -16.5,14.02914 -8.0739,7.90656 -16.1649,14.98459 -17.98,15.72896 -4.3787,1.79571 -7.9569,-0.0279 -10.1246,-5.15999 -2.3752,-5.62329 -3.9328,-5.59442 -9.2948,0.17227 -6.0573,6.51465 -11.3124,10.05689 -14.9199,10.05689 -1.5733,0 -2.8605,0.45 -2.8605,1 0,1.36068 -0.936,1.23249 -4.7583,-0.65169 z m 17.4325,-15.83565 c 5.7356,-2.86132 13.3258,-12.59466 13.3258,-17.0885 0,-1.81837 0.45,-3.58424 1,-3.92416 0.55,-0.33992 1.0049,-2.27898 1.0108,-4.30902 0.01,-2.03004 0.7299,-5.94098 1.6087,-8.69098 0.8788,-2.75 1.9432,-8.15 2.3652,-12 0.4221,-3.85 1.346,-9.49176 2.0532,-12.53724 1.7485,-7.53007 0.8041,-10.71299 -3.7419,-12.61244 -2.7755,-1.15969 -4.1941,-1.26213 -6.0115,-0.4341 -1.3082,0.59608 -3.172,1.08378 -4.1417,1.08378 -0.9697,0 -3.1976,1.40246 -4.9508,3.11657 -4.0111,3.92155 -11.192,14.83088 -11.192,17.00296 0,0.89992 -0.7342,3.37868 -1.6317,5.50835 -0.8974,2.12966 -1.8214,5.44712 -2.0534,7.37212 -0.2319,1.925 -0.8522,4.625 -1.3783,6 -0.5261,1.375 -1.0645,8.48684 -1.1966,15.80408 -0.237,13.13925 -0.209,13.32792 2.26,15.22777 3.0028,2.31055 8.5821,2.52221 12.6742,0.48081 z m 82.5348,-68.84766 c 2.6351,-4.30286 4.791,-8.27713 4.791,-8.83171 0,-0.55457 1.5671,-3.81052 3.4824,-7.23542 1.9153,-3.42491 4.403,-9.10889 5.5282,-12.63107 1.1252,-3.52219 2.6423,-7.31811 3.3714,-8.43539 0.729,-1.11727 1.5587,-3.38141 1.8437,-5.03141 0.285,-1.65 1.7008,-6.14805 3.1462,-9.99567 1.4455,-3.84761 2.6281,-8.20856 2.6281,-9.69098 0,-1.48242 0.3981,-2.94137 0.8847,-3.24209 0.4866,-0.30073 1.111,-1.78979 1.3876,-3.30902 0.2767,-1.51923 1.1935,-5.23724 2.0375,-8.26224 2.2776,-8.16326 6.0023,-34.62018 5.2795,-37.50018 -1.1847,-4.72026 -5.0968,-2.31622 -8.1596,5.01425 -0.9057,2.16748 -2.9478,5.83209 -4.5382,8.14358 -1.5903,2.31149 -2.8915,4.67044 -2.8915,5.24211 0,0.57168 -0.8577,2.56645 -1.906,4.43282 -1.0483,1.86638 -2.3634,4.24256 -2.9226,5.28042 -0.5592,1.03785 -2.0113,5.15988 -3.2269,9.16007 -1.2156,4.00019 -2.6004,7.51424 -3.0773,7.80902 -0.477,0.29477 -0.8672,1.31424 -0.8672,2.26549 0,0.95124 -0.9,3.49483 -2,5.65242 -1.1,2.15759 -2,5.03329 -2,6.39044 0,1.35716 -0.4259,3.84951 -0.9464,5.53856 -3.8118,12.36906 -4.9894,17.67469 -8.443,38.0405 -3.728,21.98378 -1.9037,25.07903 6.5984,11.1955 z m 63.6024,-11.70396 c 1.2037,-1.12142 2.1886,-2.40143 2.1886,-2.84446 0,-0.44302 1.139,-2.11299 2.5312,-3.71104 2.7494,-3.15601 10.4688,-16.03269 10.4688,-17.46297 0,-0.48495 0.8257,-2.35792 1.835,-4.16215 1.0092,-1.80423 2.1634,-4.60009 2.5648,-6.21301 0.4015,-1.61293 1.6552,-4.76293 2.7861,-7 1.1309,-2.23708 2.4177,-5.86741 2.8597,-8.06741 0.4419,-2.2 1.3214,-5.8 1.9544,-8 6.1664,-21.43267 7.8315,-53.01397 2.954,-56.02841 -2.7962,-1.72819 -6.8572,3.7216 -12.3163,16.52841 -0.5861,1.375 -1.8693,3.69447 -2.8517,5.15437 -0.9823,1.45991 -1.786,3.9883 -1.786,5.61865 0,1.63035 -1.2943,6.73588 -2.8762,11.34563 -1.582,4.60974 -3.8404,12.65635 -5.0188,17.88135 -2.4712,10.95782 -3.9426,16.54944 -5.2091,19.79705 -0.4928,1.26338 -0.8996,3.96338 -0.9042,6 -0.01,2.03662 -0.7266,8.65295 -1.6046,14.70295 -2.7634,19.04233 -2.7287,18.5 -1.1807,18.5 0.7791,0 2.4013,-0.91753 3.605,-2.03896 z m 503.3629,89.72451 c -2.2507,-2.39575 -2.926,-7.10295 -1.1743,-8.18555 0.55,-0.33992 1,-1.40108 1,-2.35813 0,-2.3891 6.2183,-4.63058 8.8858,-3.203 4.1471,2.2195 3.6037,8.55354 -1.1851,13.81113 -2.6118,2.86758 -4.7894,2.84893 -7.5264,-0.0644 z m -57.682,-7.52725 c -5.5517,-3.38562 -8.4923,-8.37788 -8.4923,-14.41726 0,-4.45289 0.4338,-5.7999 2.4895,-7.7312 2.417,-2.27063 2.5481,-2.28576 4.5,-0.51932 1.3839,1.25235 2.0151,3.09583 2.0252,5.91447 0.02,5.4993 1.8413,8.76395 5.9833,10.7242 3.6253,1.71568 4.0395,1.73795 7.9554,0.42779 3.7355,-1.24982 4.8957,-2.88014 6.5386,-9.18768 1.7559,-6.74141 1.8823,-12.26419 0.4087,-17.8693 -1.8615,-7.08091 -2.9584,-12.86976 -3.5054,-18.5 -0.7397,-7.61325 -2.1845,-11 -4.6926,-11 -1.3411,0 -8.591,6.60476 -20.8759,19.01838 -24.3623,24.61745 -34.1651,31.15434 -45.7812,30.52857 -5.6698,-0.30544 -8.7497,-2.25444 -15.8645,-10.03917 -5.3488,-5.85249 -10.331,-16.75243 -12.2271,-26.7501 -0.5324,-2.80783 -1.1705,-5.30755 -1.4179,-5.55495 -1.1693,-1.16922 -3.7724,1.13891 -5.1126,4.53321 -0.8175,2.07023 -2.1472,4.95849 -2.9549,6.41835 -0.8077,1.45986 -1.4686,3.3589 -1.4686,4.22009 0,4.77266 -11.5689,21.62562 -14.8452,21.62562 -2.2614,0 -1.0073,-10.34719 1.968,-16.23643 0.4824,-0.95504 0.8772,-2.27546 0.8772,-2.93428 0,-0.65881 0.9405,-3.25242 2.0901,-5.76357 1.1495,-2.51114 2.453,-5.46572 2.8968,-6.56572 0.4437,-1.1 1.7531,-4.33342 2.9099,-7.18538 4.4671,-11.01357 1.9696,-12.06187 -7.8968,-3.31462 -3.7222,3.3 -7.1575,6.01044 -7.6338,6.0232 -0.4764,0.0128 -2.5703,1.55831 -4.6531,3.43456 -3.2478,2.92575 -6.3758,4.94252 -18.8152,12.13102 -1.0363,0.59883 -2.6747,1.76545 -3.641,2.5925 -3.946,3.37735 -16.9359,8.69908 -22.8469,9.35997 -5.7157,0.63903 -6.2125,0.52529 -8.0809,-1.85004 -1.7622,-2.24019 -1.8969,-3.31557 -1.1728,-9.36108 0.4499,-3.75657 1.2216,-7.95513 1.7149,-9.33013 0.4933,-1.375 1.4773,-4.525 2.1867,-7 0.7094,-2.475 1.6616,-4.9275 2.116,-5.45 0.4544,-0.5225 0.8261,-1.69999 0.8261,-2.61665 0,-0.91665 0.8351,-3.86415 1.8557,-6.55 3.8786,-10.20684 4.0889,-11.29589 2.4902,-12.89456 -1.9315,-1.9315 -2.9318,-1.85982 -8.3459,0.598 -2.7607,1.25326 -7.6959,2.26898 -12.7686,2.62788 -7.3621,0.52088 -8.3146,0.81524 -8.6893,2.68517 -0.2314,1.15509 -0.7003,3.45016 -1.042,5.10016 -0.3417,1.65 -1.036,5.89078 -1.5429,9.42395 -0.5659,3.94443 -1.8935,7.89245 -3.4394,10.22856 -1.3848,2.09254 -2.5178,4.41674 -2.5178,5.16489 0,2.48693 -16.2693,18.14008 -21.5,20.68571 -6.9071,3.36151 -17.9592,3.44114 -24.6569,0.17766 -7.7271,-3.76501 -13.9363,-10.55794 -16.5775,-18.13597 -1.4334,-4.11263 -1.6841,-19.87758 -0.3697,-23.24775 0.4927,-1.26338 1.487,-4.32205 2.2096,-6.79705 1.6489,-5.64823 6.831,-16 8.0095,-16 0.4868,0 0.885,-0.58419 0.885,-1.29821 0,-0.71401 2.4775,-3.89727 5.5055,-7.0739 8.8821,-9.31811 10.9466,-12.37828 9.5145,-14.10379 -0.6715,-0.80914 -2.8632,-1.72104 -4.8705,-2.02644 -2.0072,-0.3054 -8.5514,-1.52519 -14.5427,-2.71066 l -10.8932,-2.1554 -2.3568,2.73996 c -1.2962,1.50698 -2.3568,3.65372 -2.3568,4.77052 0,5.47573 -7.4607,28.94053 -13.1953,41.50089 -1.5426,3.37863 -2.8047,6.55443 -2.8047,7.05733 0,1.56232 -6.3301,13.51606 -10.335,19.51666 -2.0986,3.14432 -7.3866,9.07632 -11.7512,13.18221 -9.8785,9.29298 -14.4275,10.96258 -29.9138,10.97912 -10.4418,0.0112 -10.5471,-0.013 -19,-4.35557 -9.5363,-4.89918 -19,-13.66455 -19,-17.59797 0,-1.26869 -0.45,-2.58483 -1,-2.92475 -0.5675,-0.35076 -1,-5.32405 -1,-11.5 0,-6.17595 0.4325,-11.14924 1,-11.5 0.55,-0.33992 1,-1.49758 1,-2.57259 0,-4.1357 8.1354,-16.23649 13.309,-19.79596 7.6187,-5.24187 17.946,-6.56674 28.1237,-3.60799 5.0092,1.45622 9.5673,4.53333 9.5673,6.45879 0,1.69756 -4.162,3.82394 -6.8337,3.49138 -21.2194,-2.64127 -24.9709,-1.55469 -31.1639,9.02637 -2.1813,3.72672 -2.8711,6.5329 -4.6038,18.72658 -0.7645,5.37984 0.9049,12.79952 3.8292,17.01956 5.8062,8.37905 25.1674,11.89964 41.992,7.63575 7.8003,-1.97684 22.607,-20.67837 27.2214,-34.38189 0.926,-2.75 2.3305,-5.99667 3.1212,-7.21482 0.7907,-1.21815 1.4376,-2.82112 1.4376,-3.56217 0,-0.74104 0.9,-3.21014 2,-5.48687 1.1,-2.27674 2,-4.80971 2,-5.62882 0,-0.81911 0.4003,-1.73667 0.8895,-2.03903 0.4892,-0.30237 1.1295,-2.01642 1.4229,-3.80902 0.7214,-4.40861 2.497,-12.03023 4.4569,-19.13015 1.5333,-5.55492 1.5239,-5.94157 -0.1756,-7.18427 -1.7235,-1.26023 -3.3738,-1.25436 -15.3559,0.0546 -2.3442,0.25609 -6.1692,1.41044 -8.5,2.56524 -2.3308,1.15479 -6.4362,2.77317 -9.1232,3.59639 -4.2906,1.31457 -5.0636,1.31844 -6.3503,0.0318 -3.1792,-3.17922 10.1531,-13.48903 19.8179,-15.32502 1.8798,-0.35711 4.0132,-1.11836 4.7409,-1.69167 0.7277,-0.57332 5.2277,-1.23947 10,-1.48033 4.7723,-0.24087 9.3833,-0.80589 10.2466,-1.25559 1.5601,-0.81267 2.7008,-3.87191 5.0115,-13.44027 0.664,-2.75 2.0425,-6.40311 3.0631,-8.11803 1.0206,-1.71492 1.8557,-3.84038 1.8557,-4.72325 0,-1.67125 1.5544,-5.37807 8.2436,-19.65872 3.4025,-7.26409 5.4089,-9.91766 13.799,-18.25 l 9.8176,-9.75 6.0109,0 c 3.306,0 6.2832,0.4407 6.6161,0.97934 0.9782,1.58264 -1.1717,4.61803 -4.3666,6.16539 -5.1728,2.50525 -22.1206,19.82921 -22.1206,22.61154 0,1.23464 -5.7241,12.326 -7.0671,13.69373 -0.5131,0.5225 -0.9329,2.02652 -0.9329,3.34227 0,1.31575 -0.9,3.53644 -2,4.93486 -1.1,1.39843 -2,3.35535 -2,4.34871 0,0.99337 -0.45,2.08424 -1,2.42416 -0.55,0.33992 -1,1.76858 -1,3.17481 0,1.40622 -0.7473,4.66089 -1.6607,7.23259 -2.1574,6.07438 -1.2873,9.87293 2.4259,10.59094 1.5041,0.29084 5.4348,1.22961 8.7348,2.08616 12.5932,3.26867 30.2702,6.53888 31.5582,5.83819 0.307,-0.16701 1.882,0.79416 3.5,2.13595 l 2.9418,2.43961 -2.8234,2.25088 c -4.9565,3.95142 -22.6766,21.03717 -22.6766,21.86485 0,0.43846 -1.1612,2.50469 -2.5805,4.59161 -6.2665,9.21457 -7.4195,13.39111 -7.4195,26.8771 0,11.44522 0.1994,12.81685 2.316,15.9317 5.0001,7.35833 12.482,10.21001 23.1401,8.81974 4.2619,-0.55591 5.6277,-1.3469 9.75,-5.6464 2.6367,-2.74995 4.7939,-5.74993 4.7939,-6.66661 0,-0.91668 1.2852,-4.33394 2.8559,-7.59391 2.2507,-4.67128 2.9718,-7.82831 3.4032,-14.89923 l 0.5473,-8.97203 -5.4032,-5.1916 c -4.7785,-4.59133 -5.4032,-5.65584 -5.4032,-9.20677 0,-3.18528 0.6961,-4.75331 3.3681,-7.58638 1.8524,-1.96416 4.0408,-3.5712 4.8631,-3.5712 1.7828,0 10.2989,8.87466 11.9107,12.41204 0.6701,1.47083 2.2967,2.74501 3.9745,3.11352 3.3931,0.74525 13.0014,-0.25042 17.8836,-1.8532 8.0152,-2.63135 20,-12.36424 20,-16.24206 0,-1.7176 4.5708,-16.44055 6.4979,-20.9303 0.7082,-1.65 1.7365,-4.8 2.2851,-7 0.8979,-3.60071 2.0417,-7.08377 4.2691,-13 0.4141,-1.1 1.7641,-4.7 3,-8 1.2359,-3.3 3.5832,-8.7 5.2163,-12 1.6331,-3.3 3.4621,-7.125 4.0644,-8.5 0.6023,-1.375 1.8988,-3.69446 2.8812,-5.15437 0.9823,-1.4599 1.786,-3.30266 1.786,-4.09501 0,-0.79235 0.9,-2.25513 2,-3.25062 1.1,-0.99548 2,-2.45826 2,-3.25061 0,-4.4843 21.349,-26.24939 25.7476,-26.24939 0.5388,0 2.166,1.18637 3.616,2.63637 2.5189,2.51884 2.6364,3.1117 2.6364,13.3 0,5.865 -0.4026,11.09113 -0.8946,11.61363 -0.4921,0.5225 -1.3584,2.975 -1.9252,5.45 -1.3591,5.93431 -3.2791,10.97584 -5.4307,14.25962 -0.9622,1.46851 -1.7495,3.12216 -1.7495,3.67478 0,0.55262 -0.9,2.60714 -2,4.5656 -1.1,1.95846 -2.0001,4.10965 -2.0001,4.78042 -1e-4,0.67077 -2.2501,4.73117 -5,9.0231 -2.75,4.29194 -4.9999,8.15969 -4.9999,8.59501 0,0.43532 -0.9,1.60598 -2,2.60147 -1.1,0.99549 -2,2.40368 -2,3.12931 0,1.79525 -10.1299,13.52589 -23.4606,27.1679 -7.2803,7.45037 -11.319,12.38779 -11.8606,14.5 -0.4516,1.76153 -1.2801,5.00279 -1.8411,7.20279 -0.5609,2.2 -1.8788,5.92454 -2.9288,8.27675 -1.0499,2.35221 -1.9089,5.29971 -1.9089,6.55 0,1.25029 -0.4416,2.71489 -0.9814,3.25468 -0.5398,0.53979 -1.7654,5.57561 -2.7236,11.19072 -1.635,9.58167 -1.6383,10.31309 -0.054,11.89786 1.5047,1.50466 2.4087,1.55591 8.2997,0.47045 3.6361,-0.66998 8.2576,-2.10066 10.2701,-3.1793 2.0126,-1.07864 4.0505,-1.96116 4.5289,-1.96116 0.4784,0 2.8701,-1.35 5.315,-3 2.4448,-1.65 4.6899,-3 4.9891,-3 0.2991,0 3.1482,-1.98064 6.3314,-4.40142 3.1831,-2.42078 6.8533,-4.96537 8.1559,-5.65465 2.5285,-1.33788 15.1438,-11.93828 15.7018,-13.19393 0.1834,-0.4125 0.9358,-0.75 1.6721,-0.75 1.749,0 8.4946,-7.89666 8.4946,-9.94412 0,-0.87126 0.9416,-4.05276 2.0926,-7.07 1.1509,-3.01723 3.1864,-8.3934 4.5233,-11.94703 1.3369,-3.55363 3.0953,-7.4753 3.9074,-8.71482 0.8122,-1.23951 1.4767,-3.01079 1.4767,-3.93618 0,-2.04058 3.9898,-13.50954 5.1618,-14.83785 0.461,-0.5225 0.8382,-1.78174 0.8382,-2.79831 0,-1.01656 0.9,-3.71109 2,-5.98782 1.1,-2.27674 2,-4.7288 2,-5.44903 0,-0.72022 1.2798,-4.1232 2.8439,-7.56217 1.5642,-3.43897 3.6587,-8.16776 4.6545,-10.50842 0.9958,-2.34066 2.416,-4.75826 3.1561,-5.37244 0.74,-0.61419 1.3455,-1.9239 1.3455,-2.91048 0,-2.33809 9.0495,-15.83572 14.8091,-22.0883 4.9774,-5.40341 12.6176,-10.87303 15.188,-10.87303 0.9099,0 2.6327,1.04151 3.8286,2.31445 2.4486,2.60642 3.0056,10.37214 1.1024,15.37045 -0.5895,1.54831 -1.4982,5.06006 -2.0194,7.80389 -1.361,7.16575 -6.6132,20.32256 -11.781,29.51121 -0.464,0.825 -1.656,3.075 -2.649,5 -0.9929,1.925 -3.1943,5.27803 -4.892,7.45118 -1.6977,2.17315 -3.5367,4.74171 -4.0867,5.70791 -2.4181,4.248 -9.3504,13.74977 -13.3812,18.34091 -5.4798,6.24174 -11.1188,14.53171 -11.1188,16.34606 0,1.03853 0.913,1.20991 3.75,0.7039 14.0652,-2.50869 17.5669,-1.66091 23.6122,5.71662 4.3222,5.27459 5.6378,8.58212 5.6378,14.17352 0,8.05951 -1.0982,10.69744 -6.9925,16.79626 -4.7686,4.9341 -6.5949,6.10689 -11.5075,7.38977 -3.3437,0.87313 -8.6519,1.38576 -12.4197,1.19938 -6.3136,-0.31232 -6.5942,-0.22705 -6.9233,2.10374 -0.5016,3.55206 7.0622,17.76743 12.3444,23.19994 6.2319,6.40927 9.1704,7.48631 16.1584,5.92245 4.5939,-1.02806 6.8493,-2.39753 13.1908,-8.0094 4.2072,-3.72312 10.3212,-9.64321 13.5867,-13.15577 3.2655,-3.51256 8.7665,-9.3617 12.2245,-12.99809 3.458,-3.63639 7.9073,-9.01905 9.8874,-11.96145 6.8111,-10.12132 19.0615,-21.92693 22.753,-21.92693 2.8215,0 5.6978,2.84631 5.6978,5.63851 0,1.08957 -2.0077,4.33311 -4.4616,7.20788 -2.6213,3.07102 -4.7385,6.70328 -5.1331,8.80651 -0.6288,3.35195 0.7041,12.33562 2.4996,16.8471 5.7998,14.5726 6.3412,25.20945 1.9456,38.22255 -2.2727,6.72835 -7.824,13.55647 -12.4519,15.316 -4.3634,1.65895 -14.5649,1.15746 -17.9063,-0.88025 z m -53.1946,-64.50934 c 1.7785,-0.74308 4.689,-3.00874 6.4679,-5.0348 2.561,-2.91681 3.2313,-4.56135 3.2197,-7.89896 -0.02,-5.79108 -1.8342,-8.88136 -6.5125,-11.09521 -3.5829,-1.69551 -4.6107,-1.75788 -10.4728,-0.63562 -5.7259,1.0962 -7.1273,1.85393 -11.7673,6.36295 -9.2785,9.01643 -9.0053,15.78103 0.7673,19.00061 3.1803,1.04776 15.2177,0.58793 18.2977,-0.69897 z m -80.2977,-51.93076 c 2.0313,-1.64969 9.9029,-12.28474 10.7067,-14.46548 0.3554,-0.964 1.7683,-3.24561 3.1399,-5.07025 1.3716,-1.82465 3.4568,-5.19965 4.6339,-7.5 1.1771,-2.30036 2.6411,-5.08247 3.2535,-6.18247 1.0921,-1.9619 5.1247,-10.59027 9.1136,-19.5 1.1081,-2.475 2.7569,-6.975 3.664,-10 0.9071,-3.025 2.0631,-6.53367 2.5688,-7.79705 1.3807,-3.44889 1.1103,-8.19254 -0.5023,-8.81134 -1.6501,-0.6332 -5.5781,1.22674 -5.5781,2.64126 0,0.52938 -1.575,3.15479 -3.5,5.83425 -1.925,2.67946 -3.5,5.1892 -3.5,5.57721 0,0.388 -2.025,3.83579 -4.5,7.66175 -2.475,3.82596 -4.51,7.50476 -4.5222,8.17511 -0.012,0.67034 -0.9023,2.34381 -1.9778,3.71881 -1.0755,1.375 -1.9655,3.1975 -1.9778,4.05 -0.012,0.8525 -0.3978,1.9775 -0.8569,2.5 -0.4591,0.5225 -1.6459,3.2 -2.6374,5.95 -2.9519,8.18747 -8.5878,22.85223 -9.608,25 -3.6145,7.60952 -2.5157,11.95059 2.0801,8.2182 z m 77.5215,-7.75222 c 1.4006,-2.21871 3.2396,-4.80621 4.0866,-5.75 3.4336,-3.8259 14.2591,-19.22227 14.871,-21.14998 0.3606,-1.1363 1.0754,-2.066 1.5883,-2.066 0.5129,0 0.9326,-1.035 0.9326,-2.3 0,-1.265 0.4226,-2.7275 0.9391,-3.25 1.0967,-1.10938 6.9329,-16.44486 8.0772,-21.224 1.8556,-7.74995 -2.0933,-9.57684 -7.6314,-3.53058 -1.8617,2.03248 -3.3849,4.0889 -3.3849,4.56983 0,0.48092 -1.2884,2.75548 -2.863,5.05458 -1.5747,2.29909 -3.1671,5.15204 -3.5387,6.33987 -0.3717,1.18783 -1.3333,2.70543 -2.137,3.37244 -0.8037,0.66701 -1.4613,2.03104 -1.4613,3.03118 0,1.69859 -2.4608,7.32525 -12.1,27.66664 -4.2987,9.07124 -4.7809,11.89319 -2.15,12.58071 0.9625,0.25153 1.8569,0.50953 1.9875,0.57333 0.1306,0.0638 1.3834,-1.69931 2.784,-3.91802 z m 127.4835,92.65004 c 0,-3.8444 1.6972,-11.1851 3.0412,-13.11602 0.3829,-0.55 1.2892,-3.3625 2.014,-6.25 0.7248,-2.8875 1.6828,-5.25 2.1288,-5.25 0.4461,0 0.8127,-1.2375 0.8147,-2.75 0,-1.5125 0.9021,-4.22338 2,-6.02417 1.098,-1.80079 1.9963,-4.01835 1.9963,-4.9279 0,-0.90956 1.3997,-6.18618 3.1104,-11.72583 3.2043,-10.37604 3.8637,-12.29648 5.6897,-16.5721 0.5872,-1.375 1.6098,-4.3 2.2724,-6.5 0.6625,-2.2 1.5609,-4.9 1.9964,-6 0.4355,-1.1 1.3059,-3.68123 1.9344,-5.73607 0.6284,-2.05484 1.5598,-3.9939 2.0697,-4.30902 0.5098,-0.31512 0.927,-1.79055 0.927,-3.27874 0,-1.48818 0.9,-4.38499 2,-6.43735 1.1,-2.05237 2,-4.5432 2,-5.5352 0,-0.99199 0.3798,-2.23112 0.8441,-2.75362 0.4642,-0.5225 1.866,-3.65 3.115,-6.95 1.2489,-3.3 3.1191,-7.90759 4.1559,-10.2391 1.0367,-2.3315 1.885,-4.694 1.885,-5.25 0,-0.55599 0.45,-1.0109 1,-1.0109 0.55,0 1,-0.84574 1,-1.87942 0,-2.46854 7.4674,-10.12058 9.8764,-10.12058 5.9836,0 4.7946,7.76782 -4.3626,28.5 -0.7288,1.65 -2.1013,5.13111 -3.0499,7.73581 -0.9486,2.6047 -2.3411,5.2473 -3.0943,5.87244 -0.7533,0.62515 -1.3696,1.98765 -1.3696,3.02776 0,1.04012 -0.379,2.67252 -0.8423,3.62756 -0.4633,0.95504 -1.8483,3.98643 -3.078,6.73643 -1.2296,2.75 -3.0772,6.8 -4.1058,9 -1.0286,2.2 -2.6149,6.34587 -3.5251,9.21305 -0.9102,2.86718 -2.2835,5.73478 -3.0518,6.37245 -0.7684,0.63766 -1.397,2.20273 -1.397,3.47793 0,1.27519 -0.45,2.59665 -1,2.93657 -0.55,0.33992 -1,1.25777 -1,2.03966 0,0.7819 -1.7326,5.14284 -3.8502,9.69099 -2.1176,4.54814 -4.4545,9.84435 -5.1931,11.76935 -0.7387,1.925 -2.1561,4.97619 -3.1498,6.78042 -0.9938,1.80423 -1.8069,3.94783 -1.8069,4.76357 0,0.81573 -0.3987,2.26454 -0.886,3.21958 -1.3166,2.58034 -4.9252,11.44235 -5.5934,13.73643 -0.3204,1.1 -1.6914,3.35 -3.0466,5 l -2.4641,3 0,-3.88398 z m -760.005,-85.26963 c 0,-2.98042 -0.737,-4.33402 -4,-7.34639 -4.7988,-4.43021 -5.0579,-7.0959 -1.0769,-11.07692 3.6021,-3.60209 6.0205,-3.68291 10.0002,-0.33419 2.8079,2.36271 3.0767,3.1146 3.0767,8.6061 0,5.21381 -0.4118,6.5371 -3.084,9.91111 -1.6962,2.14164 -3.4962,3.8939 -4,3.8939 -0.5038,0 -0.916,-1.64412 -0.916,-3.65361 z m 375,-50.65091 c -1.375,-0.64303 -3.3723,-1.96258 -4.4386,-2.93232 -1.0662,-0.96974 -2.2711,-1.76316 -2.6776,-1.76316 -0.4064,0 -2.3466,-2.64636 -4.3114,-5.88081 -3.3147,-5.4565 -3.5724,-6.46236 -3.5724,-13.94098 0,-4.43309 0.3919,-8.30237 0.8708,-8.59838 0.479,-0.29602 1.1378,-1.87287 1.4641,-3.50412 0.7992,-3.99634 11.7117,-14.93503 15.6937,-15.73143 1.6572,-0.33143 3.2552,-0.99448 3.5512,-1.47344 0.296,-0.47896 1.5467,-0.87084 2.7792,-0.87084 1.2326,0 2.6685,-0.39723 3.191,-0.88275 1.9109,-1.77559 17.6377,-3.15551 46.95,-4.11954 16.5,-0.54266 34.05,-1.43114 39,-1.97441 4.95,-0.54327 11.5936,-0.99576 14.7636,-1.00553 3.1699,-0.01 6.5449,-0.41461 7.5,-0.89964 0.955,-0.48503 3.8804,-1.38503 6.5008,-2 8.7683,-2.05782 9.594,-1.30431 4.6904,4.2806 -3.3143,3.77477 -11.4854,7.01298 -20.4548,8.10629 -2.75,0.33521 -7.0481,1.05714 -9.5513,1.6043 -2.5032,0.54716 -20.2782,1.14286 -39.5,1.32378 -48.5025,0.45651 -49.1411,0.5637 -58.1469,9.75918 -5.7982,5.9203 -8.0788,11.85251 -6.9237,18.00958 0.7965,4.24581 7.9497,11.79814 11.1745,11.79814 2.3835,0 7.4474,4.86155 7.4474,7.14973 0,4.3333 -9.7132,6.48585 -16,3.54575 z"
         style="fill:#2a0508;fill-opacity:1" />
      <path
         sodipodi:nodetypes="ssscsccsssscsccscsscsssscssccscsscssssssccsccssccccccssssccscscscssscscscssscccssscsscsscccsssssccscsssssscsccsscscsccccssccscsscscscsssssscscssscscsccscscsscscssscsscccsssccsssccssccsccssscssscsssssscscscssccsscscsssssscscssssssscsccsccsssccsccscssscsssscssccssccscsssssssscssscssscsscsssssssssscccssscsscssssssccccccssssssscsssccccccscsscssscscssssssssscsssssscscsscscsccscsscssscsccsccsccccscsccccssccsscccccscccssscssssscccssscscccscscssccsssssssscsscssssccssscssccsssssssscscscssscsssssssscccsssccsssscsssscscsscsssssssssscsscssscssscsscscssssscssscssssssccsssccsssscccssscscscscccsscscscssscscssscccscsscssssscscssssssssccsssccsscsssssscssccscssssscscsssssscsscsssccssssssccssccssccsccssscccsssssscsscsscssssccsssccccssssssssscscsccssscssccssssssssss"
         style="fill:#ffffff"
         d="m 1430.1195,796.92921 c -2.0152,-0.39247 -4.8118,-1.46572 -6.2148,-2.385 -1.403,-0.91928 -3.2694,-1.67141 -4.1474,-1.67141 -2.0616,0 -18.4497,-16.2831 -21.6386,-21.5 -3.7169,-6.08051 -5.8353,-15.31098 -5.8353,-25.42588 0,-4.92585 0.3909,-9.19767 0.8686,-9.49294 0.4778,-0.29527 1.1729,-2.45933 1.5448,-4.80902 1.208,-7.63394 12.7734,-22.75145 21.5866,-28.21662 8.5727,-5.31604 18.3229,-6.99128 23.9012,-4.10662 3.2873,1.69994 9.0988,8.04287 9.0988,9.93089 0,2.33734 -3.5707,4.62019 -7.2267,4.62019 -1.9697,0 -5.5195,-1.11496 -7.9212,-2.48795 -2.3937,-1.36838 -5.7518,-2.49338 -7.4626,-2.5 -6.0411,-0.0234 -14.6828,7.74608 -19.4511,17.48795 -2.5917,5.29481 -2.9369,7.06559 -2.9376,15.06634 0,11.08629 1.4513,19.42061 4.2297,24.27282 1.1529,2.01346 2.7631,4.96328 3.5781,6.55516 2.6411,5.15843 11.4612,12.986 16.745,14.86063 7.8578,2.78789 23.6144,1.69885 32.9464,-2.27713 1.1,-0.46866 3.0695,-1.15381 4.3766,-1.52255 2.9617,-0.83547 20.1234,-18.24911 20.1234,-20.41879 0,-0.87531 0.7875,-2.7041 1.75,-4.06397 2.2126,-3.12613 3.8223,-7.35669 12.3553,-32.47251 2.0352,-5.99021 5.083,-17.10343 5.8965,-21.5 1.3595,-7.3473 2.961,-13.02739 4.5268,-16.05538 0.8093,-1.56492 1.4714,-4.16838 1.4714,-5.78548 0,-1.61711 1.1837,-7.37695 2.6305,-12.79966 1.4468,-5.42272 2.9972,-11.65948 3.4454,-13.85948 0.4481,-2.2 1.3139,-6.025 1.9241,-8.5 1.877,-7.61365 2.8721,-12.25293 3.9684,-18.5 0.5791,-3.3 1.6706,-7.575 2.4256,-9.5 0.7549,-1.925 1.9137,-6.425 2.575,-10 0.6613,-3.575 2.001,-8.525 2.9771,-11 0.9761,-2.475 2.5838,-6.975 3.5726,-10 4.2167,-12.89949 8.9632,-21.29165 15.5824,-27.55085 6.5841,-6.22599 11.7187,-9.11602 14.3809,-8.09442 3.0635,1.17558 1.44,4.46955 -4.982,10.10771 -3.575,3.13868 -6.5,6.16015 -6.5,6.71439 0,0.55424 -0.9,2.15188 -2,3.5503 -1.1,1.39842 -2,3.3444 -2,4.3244 0,0.97999 -0.3375,1.9318 -0.75,2.11514 -0.9911,0.44049 -4.7165,9.17222 -6.3287,14.83333 -0.7049,2.475 -1.594,4.95 -1.9758,5.5 -0.3818,0.55 -0.9481,2.35 -1.2583,4 -1.3239,7.0403 -2.4089,11.13353 -3.4779,13.12035 -0.6275,1.16619 -1.5866,4.54119 -2.1314,7.5 -0.5448,2.95881 -1.6961,9.20465 -2.5585,13.87965 -0.8624,4.675 -1.9519,9.4 -2.4212,10.5 -0.9659,2.26413 -2.7336,10.03315 -3.6406,16 -1.7566,11.55696 -5.7327,28.80578 -11.4103,49.5 -1.7354,6.325 -3.5728,13.44169 -4.0832,15.81487 -0.9354,4.3497 -3.447,12.56487 -5.254,17.18513 -0.5377,1.375 -1.3049,3.4 -1.7049,4.5 -0.3999,1.1 -2.6017,5.90048 -4.8929,10.66773 -3.4259,7.12824 -5.6882,10.17309 -12.7372,17.14327 -8.3881,8.29431 -12.2462,10.83189 -21.4094,14.08159 -8.4998,3.01445 -25.5118,4.3422 -34.1296,2.66382 z m 131.6296,-62.46844 c -1.746,-2.66468 -1.5892,-3.91679 3.2666,-26.08797 1.3251,-6.05 2.8039,-13.025 3.2863,-15.5 0.4824,-2.475 1.4,-6.075 2.0391,-8 0.6392,-1.925 1.5299,-5.525 1.9795,-8 1.5462,-8.51215 4.0058,-18.34697 4.8575,-19.4226 0.4691,-0.59257 1.1548,-3.3274 1.5236,-6.0774 0.3688,-2.75 1.0581,-6.125 1.5317,-7.5 0.7908,-2.29619 2.9957,-11.83606 4.5646,-19.75 1.0815,-5.45529 -2.2994,-4.08263 -9.5965,3.89622 -5.0237,5.49312 -7.0056,7.03419 -8.3719,6.50989 -1.3874,-0.53239 -1.6531,-1.37135 -1.1815,-3.72955 0.3347,-1.67345 1.2895,-3.72366 2.1219,-4.55602 0.8324,-0.83237 1.5149,-1.81875 1.5168,-2.19197 0,-0.37321 2.7159,-3.60357 6.0311,-7.17857 3.3152,-3.575 8.1173,-9.425 10.6713,-13 2.5539,-3.575 5.4149,-7.4 6.3576,-8.5 0.9427,-1.1 1.9622,-3.575 2.2655,-5.5 1.2248,-7.77339 2.7296,-14.90195 4.7496,-22.5 2.9061,-10.93062 4.5001,-17.68595 6.9519,-29.46163 0.6254,-3.0039 1.7744,-6.69405 2.5534,-8.20034 0.7789,-1.50629 1.4273,-3.77356 1.4408,-5.03837 0.028,-2.65567 3.0504,-11.86195 5.3889,-16.41675 2.0262,-3.94656 8.8272,-11.70608 12.639,-14.4203 2.8329,-2.01718 2.9901,-2.02509 5.3698,-0.27031 4.4652,3.29262 5.7155,7.82845 5.7546,20.87735 0.038,12.53353 -1.4868,23.41874 -3.8013,27.14517 -0.7566,1.21815 -1.3756,2.81934 -1.3756,3.5582 0,1.15093 -3.7111,8.84025 -9.7623,20.22698 -0.8768,1.65 -3.2865,5.025 -5.3549,7.5 -2.0684,2.475 -5.0276,6.39033 -6.5761,8.70074 -1.5485,2.3104 -4.6257,6.1354 -6.8383,8.5 -5.6503,6.0388 -7.1545,8.71728 -7.769,13.83431 -0.2948,2.45572 -1.7032,9.63995 -3.1295,15.96495 -4.0641,18.02138 -2.548,21.01135 5.3242,10.5 6.845,-9.13989 22.2403,-24.24464 25.5601,-25.07787 2.4743,-0.62101 3.3421,-0.22094 6.1379,2.82981 4.1846,4.56623 5.0479,10.08584 3.4572,22.10534 -1.3786,10.41757 -1.1746,9.08044 -5.1185,33.54833 -1.6318,10.12308 -2.6996,19.24757 -2.373,20.27664 0.9218,2.90413 4.9508,5.15111 7.1377,3.9807 3.2905,-1.76099 17.3045,-18.10125 17.3045,-20.17688 0,-0.64753 0.863,-2.38935 1.9179,-3.87071 1.4555,-2.04412 2.0785,-5.21509 2.5844,-13.15437 1.3566,-21.28806 6.1836,-42.05733 11.145,-47.95361 1.294,-1.53785 2.3527,-3.34046 2.3527,-4.00581 0,-0.66534 2.7115,-3.86288 6.0255,-7.10564 5.9203,-5.79307 6.1244,-5.89593 11.6962,-5.89593 4.471,0 6.4606,0.54733 9.4038,2.58695 5.8215,4.0343 6.872,3.32967 12.0564,-8.08695 0.4995,-1.1 1.7691,-3.125 2.8212,-4.5 1.5624,-2.04192 2.2413,-2.29821 3.7049,-1.39872 2.0622,1.26732 3.0141,8.07666 1.3602,9.7305 -0.5875,0.58752 -1.0682,2.08634 -1.0682,3.33071 0,1.24437 -0.8531,4.64187 -1.8957,7.55 -1.0426,2.90813 -2.634,9.33751 -3.5364,14.28751 -0.9023,4.95 -2.0816,10.94627 -2.6205,13.32504 -0.5389,2.37877 -1.266,8.35555 -1.6156,13.28173 -0.959,13.5104 1.561,16.58269 10.4697,12.764 4.2542,-1.82357 11.4956,-7.05715 15.1866,-10.97588 0.8316,-0.88281 3.7018,-3.87647 6.3784,-6.65259 3.2208,-3.34066 5.1497,-6.34849 5.7043,-8.89489 0.4608,-2.11607 1.333,-5.87241 1.9383,-8.34741 0.9671,-3.95466 2.4534,-11.16571 6.0802,-29.5 1.6664,-8.42366 2.7509,-14.76878 3.4186,-20 0.351,-2.75 1.0241,-5.9 1.4959,-7 0.4717,-1.1 1.0662,-4.25 1.321,-7 0.2549,-2.75 1.0572,-8.28902 1.783,-12.30894 1.1386,-6.30662 1.1199,-7.43228 -0.1358,-8.20839 -1.6918,-1.04555 -5.5341,-0.32909 -8.6516,1.61322 -1.1988,0.74688 -4.0213,1.65245 -6.2722,2.01239 -2.2509,0.35993 -4.3341,1.04532 -4.6294,1.52307 -0.2952,0.47776 -1.3496,0.86865 -2.343,0.86865 -0.9933,0 -2.8793,0.83594 -4.1909,1.85764 -1.3117,1.02171 -4.1849,2.44001 -6.3849,3.15178 -3.5657,1.15363 -9.8135,3.76032 -14.7364,6.14828 -0.9551,0.46327 -2.2143,0.8423 -2.7983,0.8423 -0.5841,0 -2.9247,0.9 -5.2014,2 -4.9675,2.40004 -7.0939,2.5122 -8.7939,0.46384 -1.0659,-1.28432 -0.8223,-2.00861 1.4862,-4.41814 2.3705,-2.47425 13.658,-8.69561 20.0438,-11.04758 5.1052,-1.88031 13.705,-5.60731 21.0762,-9.13406 4.4419,-2.12524 8.7169,-3.87407 9.5,-3.8863 0.7831,-0.0122 2.5488,-0.90222 3.9238,-1.97776 1.375,-1.07554 3.175,-1.96722 4,-1.9815 1.7665,-0.0306 8.1762,-3.77475 9.2347,-5.39434 0.4041,-0.61829 0.7416,-2.3067 0.75,-3.75204 0.022,-3.78 2.5322,-9.25227 6.1168,-13.33489 3.6429,-4.14911 4.3564,-4.29427 6.3266,-1.28723 1.085,1.6561 1.2527,3.23204 0.635,5.97048 -0.5978,2.65022 -0.4763,4.0216 0.4221,4.76725 1.3376,1.11009 2.4602,0.84664 9.3282,-2.18898 7.0296,-3.10706 10.5005,-3.15795 13.2843,-0.1948 l 2.3985,2.55318 -3.7334,3.42143 c -2.0534,1.88179 -4.7525,3.43145 -5.9981,3.44368 -1.2456,0.0122 -3.3897,0.90222 -4.7647,1.97776 -1.375,1.07554 -3.175,1.99544 -4,2.04422 -0.825,0.0488 -3.7394,1.33456 -6.4764,2.85729 -3.9311,2.18704 -5.15,3.48594 -5.8029,6.18355 -0.4546,1.87822 -1.2326,4.98994 -1.7289,6.91494 -0.4962,1.925 -1.1626,4.85 -1.4807,6.5 -1.6853,8.74162 -2.9558,14.55489 -4.2617,19.5 -1.4089,5.3357 -2.2766,9.53542 -4.3385,21 -1.8555,10.31746 -2.7437,14.49842 -3.9298,18.5 -0.6521,2.2 -1.4152,5.8 -1.6958,8 -0.2806,2.2 -0.8492,4.45 -1.2636,5 -0.4143,0.55 -1.047,5.74654 -1.406,11.54787 -0.359,5.80133 -0.8444,11.54332 -1.0787,12.75998 -0.6152,3.19461 1.3228,8.01287 3.501,8.70421 1.029,0.32658 3.1289,-0.18318 4.6664,-1.1328 3.8888,-2.40173 11.2359,-10.54421 11.2685,-12.48847 0.015,-0.88507 1.7366,-3.58507 3.8259,-6 2.0893,-2.41493 4.4112,-6.41579 5.1598,-8.89079 0.7486,-2.475 2.5672,-7.2 4.0414,-10.5 1.4742,-3.3 3.25,-8.025 3.9462,-10.5 0.6963,-2.475 2.1182,-6.23003 3.1599,-8.3445 1.0416,-2.11448 1.8939,-4.72532 1.8939,-5.80188 0,-1.07656 0.9771,-3.84654 2.1713,-6.1555 3.4404,-6.65197 3.8287,-7.58047 3.8287,-9.15413 0,-0.81574 0.8309,-2.95934 1.8464,-4.76357 1.0156,-1.80423 3.2989,-5.85088 5.0741,-8.99256 2.7386,-4.8465 12.1304,-14.49881 15.2106,-15.6324 1.5094,-0.55551 3.8689,1.92211 3.8689,4.06261 0,1.08526 -0.8037,3.16766 -1.786,4.62756 -3.4629,5.14643 -4.4508,7.9925 -3.9271,11.31299 1.0895,6.90724 2.6386,11.15911 5.893,16.17411 1.8443,2.842 4.0046,6.51727 4.8006,8.16727 0.7961,1.65 2.2511,4.19447 3.2335,5.65437 0.9823,1.4599 1.786,3.79585 1.786,5.19098 0,1.39514 0.45,2.81473 1,3.15465 1.3175,0.81426 1.3175,22.18574 0,23 -0.55,0.33992 -1.0142,1.60398 -1.0316,2.80902 -0.034,2.38449 -2.2463,5.14753 -8.7588,10.94098 -4.0063,3.56401 -4.5577,3.75 -11.1179,3.75 -6.4659,0 -7.1761,-0.22865 -11.23,-3.61556 -6.1309,-5.12217 -7.7308,-7.1847 -8.8779,-11.44444 -2.0476,-7.60441 3.167,-12.41665 6.4905,-5.98966 0.8391,1.62269 1.5257,3.7724 1.5257,4.77714 0,1.00474 1.3246,3.27709 2.9436,5.04966 2.4826,2.71804 3.6494,3.22286 7.4491,3.22286 3.9286,0 4.8101,-0.41619 6.8841,-3.25 3.4399,-4.70004 5.1165,-10.8533 4.3417,-15.93417 -0.8175,-5.36066 -3.6452,-14.99254 -4.7753,-16.26583 -0.4638,-0.5225 -0.8432,-1.895 -0.8432,-3.05 0,-1.155 -0.3976,-2.5275 -0.8835,-3.05 -1.4062,-1.51191 -5.1165,-12.83302 -5.1165,-15.61159 0,-1.39064 -0.8222,-3.27251 -1.8271,-4.18193 -1.7102,-1.54775 -1.966,-1.50558 -4,0.65947 -1.1951,1.27212 -2.1729,3.05776 -2.1729,3.96808 0,0.91033 -0.945,3.35632 -2.0999,5.43555 -1.155,2.07923 -3.0112,5.58042 -4.125,7.78042 -1.1137,2.2 -2.4198,4.675 -2.9024,5.5 -0.4826,0.825 -1.3384,2.625 -1.9017,4 -0.5633,1.375 -2.1373,4.5859 -3.4976,7.13533 -1.3604,2.54943 -2.4734,5.14183 -2.4734,5.7609 0,2.44663 -11.4758,26.42383 -13.4184,28.03607 -0.8699,0.72192 -1.5816,1.94143 -1.5816,2.71002 0,3.85633 -11.934,18.26227 -18.5,22.33188 -6.2468,3.8718 -13.1088,-0.87532 -14.1658,-9.7999 -0.792,-6.68759 -2.8053,-8.55717 -5.5372,-5.14187 -9.2147,11.51999 -25.4156,26.96757 -28.2827,26.96757 -0.7545,0 -3.0419,-1.575 -5.083,-3.5 -5.1984,-4.90271 -7.3261,-4.46868 -8.8251,1.80016 -0.3682,1.54009 -3.5719,5.70259 -7.1193,9.25 l -6.4499,6.44984 -5.9798,0 c -5.6692,0 -6.1898,-0.21195 -10.0186,-4.07921 -2.2212,-2.24356 -4.0386,-4.66346 -4.0386,-5.37755 0,-2.07983 -2.7276,-3.76447 -4.952,-3.05847 -1.1264,0.3575 -2.048,1.32058 -2.048,2.14017 0,2.47939 -8.2473,16.37453 -10.2139,17.20839 -0.4324,0.18334 -0.7861,0.76406 -0.7861,1.2905 0,1.60568 -4.1109,6.63056 -7.9457,9.71232 -1.9959,1.6039 -5.4484,3.22358 -7.6723,3.59931 -3.5816,0.60511 -4.4055,0.34496 -7.2128,-2.27737 -3.1474,-2.94011 -3.1691,-3.02836 -3.1495,-12.8093 0.011,-5.41683 0.7311,-13.44879 1.6007,-17.84879 2.7251,-13.78897 5.7357,-40.94503 4.9058,-44.25148 -0.3197,-1.2741 -1.6737,-2.81423 -3.0087,-3.42251 -3.6477,-1.66197 -7.5971,0.43521 -14.2865,7.58622 -5.1558,5.51153 -17.231,22.5054 -17.231,24.24976 0,0.37429 -0.6763,1.42783 -1.5029,2.34119 -1.3495,1.49117 -2.2031,4.89326 -4.014,15.99682 -0.3139,1.925 -0.9886,5.07709 -1.4994,7.00464 -1.1776,4.44435 -4.3227,20.24795 -6.883,34.58627 -2.0002,11.2019 -4.6721,17.57416 -8.149,19.43493 -2.5169,1.34704 -2.6997,1.28848 -4.486,-1.43787 z m 125.3243,-67.69425 c 7.3715,-8.0024 8.9802,-12.01836 9.683,-24.17202 0.5358,-9.26736 1.9035,-21.00325 4.1122,-35.28714 0.5681,-3.67405 0.2941,-4.42015 -2.8464,-7.75 -2.2508,-2.38657 -4.3792,-3.68456 -6.0418,-3.68456 -5.5566,0 -11.3959,3.72207 -14.0388,8.94857 -0.7097,1.40329 -1.7638,3.45143 -2.3426,4.55143 -3.643,6.92345 -5.2791,14.07777 -7.8894,34.5 -2.2492,17.59651 -1.0456,24.88321 4.5738,27.69033 4.5641,2.27997 9.8507,0.56546 14.79,-4.79661 z m -79.1513,-95.65903 c 1.6172,-1.04351 11.2706,-16.65978 15.0206,-24.29887 5.671,-11.55222 7.9821,-29.83201 4.2249,-33.41658 -1.6281,-1.55332 -5.8806,-0.32707 -5.8904,1.69854 0,0.70522 -0.5847,2.40722 -1.2919,3.78222 -1.7134,3.3317 -4.8098,12.20353 -8.7253,25 -1.7671,5.775 -4.3253,13.96475 -5.685,18.19944 -1.3597,4.23469 -2.18,8.17219 -1.8228,8.75 0.7521,1.21696 2.5367,1.33903 4.1699,0.28525 z m -150.6387,57.64458 c -3.7726,-1.49992 -7.908,-5.85507 -10.3304,-10.87927 -1.7657,-3.66227 -2.1509,-6.17546 -2.0689,-13.5 0.139,-12.42524 2.8115,-18.12396 13.3008,-28.36115 7.6052,-7.42246 9.6562,-8.8103 19.0985,-12.92342 10.7652,-4.6894 12.1605,-5.21543 13.8339,-5.21543 0.9714,0 2.1936,-0.39452 2.7161,-0.87671 1.2219,-1.12762 11.3723,-4.50873 18.45,-6.1457 3.025,-0.69963 7.0683,-2.10581 8.9852,-3.12483 1.9169,-1.01902 4.9723,-1.85276 6.7898,-1.85276 1.8176,0 4.9743,-0.82926 7.0148,-1.84281 2.0406,-1.01354 5.9602,-2.42988 8.7102,-3.14742 2.75,-0.71754 5.4275,-1.68828 5.95,-2.1572 0.5225,-0.46891 1.7661,-0.85257 2.7636,-0.85257 0.9974,0 2.5949,-0.4271 3.55,-0.94912 0.955,-0.52201 4.8864,-2.36743 8.7364,-4.10092 15.5505,-7.00176 20.1668,-9.49921 23.7485,-12.84809 2.7756,-2.59516 4.0404,-3.213 4.873,-2.38041 0.8326,0.8326 0.5673,1.90684 -1.022,4.13884 -3.5275,4.95385 -14.0852,13.96275 -19.004,16.2161 -2.5275,1.1579 -7.2955,3.38499 -10.5955,4.9491 -8.2096,3.89114 -13.1399,5.97384 -14.1511,5.97793 -0.4669,0.002 -4.2239,1.38724 -8.3489,3.07857 -9.3136,3.81873 -13.8269,5.35237 -21.5706,7.32968 -6.2094,1.58554 -31.3252,9.83319 -34.9294,11.47028 -11.9501,5.42798 -14.5285,7.0453 -19.5496,12.2628 -4.1461,4.30829 -5.8531,6.97914 -6.7497,10.56096 -3.8296,15.29891 0.701,26.13559 11.6595,27.88791 4.1205,0.6589 12.3881,-0.93537 14.8898,-2.87125 2.6629,-2.0606 1.1807,2.19306 -1.8043,5.17809 -5.0691,5.06906 -18.1514,7.6801 -24.9457,4.9788 z m 430.2417,-18.53096 c -1.7921,-0.88339 -4.6286,-3.46064 -6.3034,-5.72723 -7.2759,-9.68762 0.4826,-50.07768 4.5759,-60.12108 0.7124,-1.65 2.0152,-4.74744 2.8951,-6.8832 0.909,-2.20617 5.1609,-7.38859 9.8453,-12 6.3035,-6.2052 9.4546,-8.52894 13.3796,-9.8668 6.7613,-2.30458 8.2127,-2.21805 12.5806,0.75 4.873,3.31127 6.4405,3.16173 10.4823,-1 1.8696,-1.925 4.2775,-3.5 5.351,-3.5 1.6577,0 1.9519,0.70513 1.9519,4.679 0,4.46703 -1.2316,9.81408 -3.1228,13.55743 -0.4824,0.95504 -0.8772,2.74234 -0.8772,3.97179 0,2.12695 -2.4299,11.02203 -5.6798,20.79178 -0.8233,2.475 -2.207,9.55686 -3.0748,15.73747 -2.0771,14.79349 -1.3888,16.72294 5.7222,16.03967 5.6921,-0.54694 10.5567,-4.41175 22.8094,-18.1215 7.926,-8.86857 9.0303,-11.40144 10.3132,-23.65564 2.1482,-20.52067 3.7486,-31.83027 4.7756,-33.74923 6.8505,-38.05004 15.3924,-87.81822 39.2037,-113.50077 8.8038,-8.87472 11.1896,-9.60766 15.315,-4.70493 1.4092,1.67479 3.0775,4.76481 3.7072,6.86671 2.8692,35.50304 -10.3673,72.4342 -24.9212,103.08822 -1.1968,2.475 -2.1748,4.87902 -2.1733,5.34227 0,0.46325 -0.8972,1.98644 -1.9972,3.38486 -1.1,1.39842 -2,3.1435 -2,3.87794 0,0.73444 -2.25,4.65153 -5,8.70463 -2.75,4.05311 -5,7.82177 -5,8.37481 0,0.55303 -0.9,1.82 -2,2.81549 -1.1,0.99549 -2,2.227 -2,2.73669 0,0.50969 -1.5489,2.81689 -3.4419,5.1271 -4.5234,5.52021 -5.5603,8.5021 -5.5471,15.95131 0.018,10.29189 0.9007,13.5879 4.0776,15.23073 3.9461,2.04061 6.2381,1.83127 12.5279,-1.14425 4.1555,-1.9659 9.7393,-6.79974 22.938,-19.85747 15.7156,-15.54764 17.4479,-17.59545 17.47,-20.65158 0.013,-1.86589 0.501,-5.41753 1.0835,-7.89253 0.5826,-2.475 1.6865,-9.45 2.4533,-15.5 6.6195,-41.68929 15.27,-97.01577 37.3592,-126.40842 7.2829,-7.75562 10.8805,-8.8128 15.8267,-4.65081 15.4985,50.33535 -17.1319,117.35053 -40.1915,146.55923 -8.2626,10.46226 -9.8255,14.25018 -11.5154,27.909 -1.5857,12.81743 -1.367,18.48534 0.7884,20.43601 2.387,2.1602 3.1265,2.1023 9.3928,-0.73542 3.866,-1.75072 8.4714,-5.61676 17.2099,-14.4469 6.5623,-6.63107 12.2998,-11.82883 12.75,-11.55057 1.3676,0.84519 0.8815,4.65254 -1.1714,9.17577 -2.1625,4.76458 -18.458,21.48783 -26.6965,27.39724 -2.8256,2.02683 -7.4223,4.36364 -10.2148,5.19293 l -5.0773,1.50779 -3.4424,-3.24655 c -1.8933,-1.7856 -3.749,-4.46855 -4.1239,-5.9621 -0.3793,-1.51147 0.2071,-7.6743 1.3226,-13.89889 2.027,-11.31108 1.991,-13.77831 -0.2008,-13.77831 -1.2079,0 -9.331,6.99542 -23.6849,20.39686 -16.1136,15.04445 -24.1245,20.60314 -29.6921,20.60314 -6.7642,0 -9.361,-3.18759 -10.1754,-12.49042 -0.4162,-4.7537 -0.9003,-6.06195 -2.3447,-6.33685 -1.2416,-0.23629 -6.4871,4.22373 -16.5,14.02914 -8.0739,7.90656 -16.1649,14.98459 -17.98,15.72896 -4.3787,1.79571 -7.9569,-0.0279 -10.1246,-5.15999 -2.3752,-5.62329 -3.9328,-5.59442 -9.2948,0.17227 -6.0573,6.51465 -11.3124,10.05689 -14.9199,10.05689 -1.5733,0 -2.8605,0.45 -2.8605,1 0,1.36068 -0.936,1.23249 -4.7583,-0.65169 z m 17.4325,-15.83565 c 5.7356,-2.86132 13.3258,-12.59466 13.3258,-17.0885 0,-1.81837 0.45,-3.58424 1,-3.92416 0.55,-0.33992 1.0049,-2.27898 1.0108,-4.30902 0.01,-2.03004 0.7299,-5.94098 1.6087,-8.69098 0.8788,-2.75 1.9432,-8.15 2.3652,-12 0.4221,-3.85 1.346,-9.49176 2.0532,-12.53724 1.7485,-7.53007 0.8041,-10.71299 -3.7419,-12.61244 -2.7755,-1.15969 -4.1941,-1.26213 -6.0115,-0.4341 -1.3082,0.59608 -3.172,1.08378 -4.1417,1.08378 -0.9697,0 -3.1976,1.40246 -4.9508,3.11657 -4.0111,3.92155 -11.192,14.83088 -11.192,17.00296 0,0.89992 -0.7342,3.37868 -1.6317,5.50835 -0.8974,2.12966 -1.8214,5.44712 -2.0534,7.37212 -0.2319,1.925 -0.8522,4.625 -1.3783,6 -0.5261,1.375 -1.0645,8.48684 -1.1966,15.80408 -0.237,13.13925 -0.209,13.32792 2.26,15.22777 3.0028,2.31055 8.5821,2.52221 12.6742,0.48081 z m 82.5348,-68.84766 c 2.6351,-4.30286 4.791,-8.27713 4.791,-8.83171 0,-0.55457 1.5671,-3.81052 3.4824,-7.23542 1.9153,-3.42491 4.403,-9.10889 5.5282,-12.63107 1.1252,-3.52219 2.6423,-7.31811 3.3714,-8.43539 0.729,-1.11727 1.5587,-3.38141 1.8437,-5.03141 0.285,-1.65 1.7008,-6.14805 3.1462,-9.99567 2.3739,-8.59318 4.7108,-16.47982 6.9379,-24.50433 2.2776,-8.16326 6.0023,-34.62018 5.2795,-37.50018 -1.1847,-4.72026 -5.0968,-2.31622 -8.1596,5.01425 -11.5112,18.47502 -18.7382,40.86773 -24.3761,59.91493 -3.8118,12.36906 -4.9894,17.67469 -8.443,38.0405 -3.728,21.98378 -1.9037,25.07903 6.5984,11.1955 z m 63.6024,-11.70396 c 12.6846,-17.16689 21.8166,-39.12029 27.1886,-57.46104 6.1664,-21.43267 7.8315,-53.01397 2.954,-56.02841 -2.7962,-1.72819 -6.8572,3.7216 -12.3163,16.52841 -0.5861,1.375 -1.8693,3.69447 -2.8517,5.15437 -0.9823,1.45991 -1.786,3.9883 -1.786,5.61865 0,1.63035 -1.2943,6.73588 -2.8762,11.34563 -1.582,4.60974 -3.8404,12.65635 -5.0188,17.88135 -2.4712,10.95782 -3.9426,16.54944 -5.2091,19.79705 -0.4928,1.26338 -0.8996,3.96338 -0.9042,6 -0.01,2.03662 -0.7266,8.65295 -1.6046,14.70295 -2.7634,19.04233 -2.7287,18.5 -1.1807,18.5 0.7791,0 2.4013,-0.91753 3.605,-2.03896 z m 503.3629,89.72451 c -2.2507,-2.39575 -2.926,-7.10295 -1.1743,-8.18555 0.55,-0.33992 1,-1.40108 1,-2.35813 0,-2.3891 6.2183,-4.63058 8.8858,-3.203 4.1471,2.2195 3.6037,8.55354 -1.1851,13.81113 -2.6118,2.86758 -4.7894,2.84893 -7.5264,-0.0644 z m -57.682,-7.52725 c -5.5517,-3.38562 -8.4923,-8.37788 -8.4923,-14.41726 0,-4.45289 0.4338,-5.7999 2.4895,-7.7312 2.417,-2.27063 2.5481,-2.28576 4.5,-0.51932 1.3839,1.25235 2.0151,3.09583 2.0252,5.91447 0.02,5.4993 1.8413,8.76395 5.9833,10.7242 3.6253,1.71568 4.0395,1.73795 7.9554,0.42779 3.7355,-1.24982 4.8957,-2.88014 6.5386,-9.18768 1.7559,-6.74141 1.8823,-12.26419 0.4087,-17.8693 -1.8615,-7.08091 -2.9584,-12.86976 -3.5054,-18.5 -0.7397,-7.61325 -2.1845,-11 -4.6926,-11 -1.3411,0 -8.591,6.60476 -20.8759,19.01838 -24.3623,24.61745 -34.1651,31.15434 -45.7812,30.52857 -5.6698,-0.30544 -8.7497,-2.25444 -15.8645,-10.03917 -5.3488,-5.85249 -10.331,-16.75243 -12.2271,-26.7501 -0.5324,-2.80783 -1.1705,-5.30755 -1.4179,-5.55495 -1.1693,-1.16922 -3.7724,1.13891 -5.1126,4.53321 -0.8175,2.07023 -2.1472,4.95849 -2.9549,6.41835 -0.8077,1.45986 -1.4686,3.3589 -1.4686,4.22009 0,4.77266 -11.5689,21.62562 -14.8452,21.62562 -2.2614,0 -1.0073,-10.34719 1.968,-16.23643 0.4824,-0.95504 0.8772,-2.27546 0.8772,-2.93428 0,-0.65881 0.9405,-3.25242 2.0901,-5.76357 1.1495,-2.51114 2.453,-5.46572 2.8968,-6.56572 0.4437,-1.1 1.7531,-4.33342 2.9099,-7.18538 4.4671,-11.01357 1.9696,-12.06187 -7.8968,-3.31462 -3.7222,3.3 -7.1575,6.01044 -7.6338,6.0232 -0.4764,0.0128 -2.5703,1.55831 -4.6531,3.43456 -3.2478,2.92575 -6.3758,4.94252 -18.8152,12.13102 -1.0363,0.59883 -2.6747,1.76545 -3.641,2.5925 -3.946,3.37735 -16.9359,8.69908 -22.8469,9.35997 -5.7157,0.63903 -6.2125,0.52529 -8.0809,-1.85004 -1.7622,-2.24019 -1.8969,-3.31557 -1.1728,-9.36108 0.4499,-3.75657 1.2216,-7.95513 1.7149,-9.33013 0.4933,-1.375 1.4773,-4.525 2.1867,-7 0.7094,-2.475 1.6616,-4.9275 2.116,-5.45 0.4544,-0.5225 0.8261,-1.69999 0.8261,-2.61665 0,-0.91665 0.8351,-3.86415 1.8557,-6.55 3.8786,-10.20684 4.0889,-11.29589 2.4902,-12.89456 -1.9315,-1.9315 -2.9318,-1.85982 -8.3459,0.598 -2.7607,1.25326 -7.6959,2.26898 -12.7686,2.62788 -7.3621,0.52088 -8.3146,0.81524 -8.6893,2.68517 -0.2314,1.15509 -0.7003,3.45016 -1.042,5.10016 -0.3417,1.65 -1.036,5.89078 -1.5429,9.42395 -0.5659,3.94443 -1.8935,7.89245 -3.4394,10.22856 -1.3848,2.09254 -2.5178,4.41674 -2.5178,5.16489 0,2.48693 -16.2693,18.14008 -21.5,20.68571 -6.9071,3.36151 -17.9592,3.44114 -24.6569,0.17766 -7.7271,-3.76501 -13.9363,-10.55794 -16.5775,-18.13597 -1.4334,-4.11263 -1.6841,-19.87758 -0.3697,-23.24775 0.4927,-1.26338 1.487,-4.32205 2.2096,-6.79705 1.6489,-5.64823 6.831,-16 8.0095,-16 0.4868,0 0.885,-0.58419 0.885,-1.29821 0,-0.71401 2.4775,-3.89727 5.5055,-7.0739 8.8821,-9.31811 10.9466,-12.37828 9.5145,-14.10379 -0.6715,-0.80914 -2.8632,-1.72104 -4.8705,-2.02644 -2.0072,-0.3054 -8.5514,-1.52519 -14.5427,-2.71066 l -10.8932,-2.1554 -2.3568,2.73996 c -1.2962,1.50698 -2.3568,3.65372 -2.3568,4.77052 0,5.47573 -7.4607,28.94053 -13.1953,41.50089 -1.5426,3.37863 -2.8047,6.55443 -2.8047,7.05733 0,1.56232 -6.3301,13.51606 -10.335,19.51666 -2.0986,3.14432 -7.3866,9.07632 -11.7512,13.18221 -9.8785,9.29298 -14.4275,10.96258 -29.9138,10.97912 -10.4418,0.0112 -10.5471,-0.013 -19,-4.35557 -9.5363,-4.89918 -19,-13.66455 -19,-17.59797 0,-1.26869 -0.45,-2.58483 -1,-2.92475 -0.5675,-0.35076 -1,-5.32405 -1,-11.5 0,-6.17595 0.4325,-11.14924 1,-11.5 0.55,-0.33992 1,-1.49758 1,-2.57259 0,-4.1357 8.1354,-16.23649 13.309,-19.79596 7.6187,-5.24187 17.946,-6.56674 28.1237,-3.60799 5.0092,1.45622 9.5673,4.53333 9.5673,6.45879 0,1.69756 -4.162,3.82394 -6.8337,3.49138 -21.2194,-2.64127 -24.9709,-1.55469 -31.1639,9.02637 -2.1813,3.72672 -2.8711,6.5329 -4.6038,18.72658 -0.7645,5.37984 0.9049,12.79952 3.8292,17.01956 5.8062,8.37905 25.1674,11.89964 41.992,7.63575 7.8003,-1.97684 22.607,-20.67837 27.2214,-34.38189 0.926,-2.75 2.3305,-5.99667 3.1212,-7.21482 0.7907,-1.21815 1.4376,-2.82112 1.4376,-3.56217 0,-0.74104 0.9,-3.21014 2,-5.48687 1.1,-2.27674 2,-4.80971 2,-5.62882 0,-0.81911 0.4003,-1.73667 0.8895,-2.03903 0.4892,-0.30237 1.1295,-2.01642 1.4229,-3.80902 0.7214,-4.40861 2.497,-12.03023 4.4569,-19.13015 1.5333,-5.55492 1.5239,-5.94157 -0.1756,-7.18427 -1.7235,-1.26023 -3.3738,-1.25436 -15.3559,0.0546 -2.3442,0.25609 -6.1692,1.41044 -8.5,2.56524 -2.3308,1.15479 -6.4362,2.77317 -9.1232,3.59639 -4.2906,1.31457 -5.0636,1.31844 -6.3503,0.0318 -3.1792,-3.17922 10.1531,-13.48903 19.8179,-15.32502 1.8798,-0.35711 4.0132,-1.11836 4.7409,-1.69167 0.7277,-0.57332 5.2277,-1.23947 10,-1.48033 4.7723,-0.24087 9.3833,-0.80589 10.2466,-1.25559 1.5601,-0.81267 2.7008,-3.87191 5.0115,-13.44027 0.664,-2.75 2.0425,-6.40311 3.0631,-8.11803 1.0206,-1.71492 1.8557,-3.84038 1.8557,-4.72325 0,-1.67125 1.5544,-5.37807 8.2436,-19.65872 3.4025,-7.26409 5.4089,-9.91766 13.799,-18.25 l 9.8176,-9.75 6.0109,0 c 3.306,0 6.2832,0.4407 6.6161,0.97934 0.9782,1.58264 -1.1717,4.61803 -4.3666,6.16539 -5.1728,2.50525 -22.1206,19.82921 -22.1206,22.61154 0,1.23464 -5.7241,12.326 -7.0671,13.69373 -0.5131,0.5225 -0.9329,2.02652 -0.9329,3.34227 0,1.31575 -0.9,3.53644 -2,4.93486 -1.1,1.39843 -2,3.35535 -2,4.34871 0,0.99337 -0.45,2.08424 -1,2.42416 -0.55,0.33992 -1,1.76858 -1,3.17481 0,1.40622 -0.7473,4.66089 -1.6607,7.23259 -2.1574,6.07438 -1.2873,9.87293 2.4259,10.59094 1.5041,0.29084 5.4348,1.22961 8.7348,2.08616 12.5932,3.26867 30.2702,6.53888 31.5582,5.83819 0.307,-0.16701 1.882,0.79416 3.5,2.13595 l 2.9418,2.43961 -2.8234,2.25088 c -4.9565,3.95142 -22.6766,21.03717 -22.6766,21.86485 0,0.43846 -1.1612,2.50469 -2.5805,4.59161 -6.2665,9.21457 -7.4195,13.39111 -7.4195,26.8771 0,11.44522 0.1994,12.81685 2.316,15.9317 5.0001,7.35833 12.482,10.21001 23.1401,8.81974 4.2619,-0.55591 5.6277,-1.3469 9.75,-5.6464 2.6367,-2.74995 4.7939,-5.74993 4.7939,-6.66661 0,-0.91668 1.2852,-4.33394 2.8559,-7.59391 2.2507,-4.67128 2.9718,-7.82831 3.4032,-14.89923 l 0.5473,-8.97203 -5.4032,-5.1916 c -4.7785,-4.59133 -5.4032,-5.65584 -5.4032,-9.20677 0,-3.18528 0.6961,-4.75331 3.3681,-7.58638 1.8524,-1.96416 4.0408,-3.5712 4.8631,-3.5712 1.7828,0 10.2989,8.87466 11.9107,12.41204 0.6701,1.47083 2.2967,2.74501 3.9745,3.11352 3.3931,0.74525 13.0014,-0.25042 17.8836,-1.8532 8.0152,-2.63135 20,-12.36424 20,-16.24206 0,-1.7176 4.5708,-16.44055 6.4979,-20.9303 0.7082,-1.65 1.7365,-4.8 2.2851,-7 0.8979,-3.60071 2.0417,-7.08377 4.2691,-13 0.4141,-1.1 1.7641,-4.7 3,-8 1.2359,-3.3 3.5832,-8.7 5.2163,-12 1.6331,-3.3 3.4621,-7.125 4.0644,-8.5 0.6023,-1.375 1.8988,-3.69446 2.8812,-5.15437 0.9823,-1.4599 1.786,-3.30266 1.786,-4.09501 0,-0.79235 0.9,-2.25513 2,-3.25062 1.1,-0.99548 2,-2.45826 2,-3.25061 0,-4.4843 21.349,-26.24939 25.7476,-26.24939 0.5388,0 2.166,1.18637 3.616,2.63637 2.5189,2.51884 2.6364,3.1117 2.6364,13.3 0,5.865 -0.4026,11.09113 -0.8946,11.61363 -0.4921,0.5225 -1.3584,2.975 -1.9252,5.45 -1.3591,5.93431 -3.2791,10.97584 -5.4307,14.25962 -0.9622,1.46851 -1.7495,3.12216 -1.7495,3.67478 0,0.55262 -0.9,2.60714 -2,4.5656 -1.1,1.95846 -2.0001,4.10965 -2.0001,4.78042 -1e-4,0.67077 -2.2501,4.73117 -5,9.0231 -2.75,4.29194 -4.9999,8.15969 -4.9999,8.59501 0,0.43532 -0.9,1.60598 -2,2.60147 -1.1,0.99549 -2,2.40368 -2,3.12931 0,1.79525 -10.1299,13.52589 -23.4606,27.1679 -7.2803,7.45037 -11.319,12.38779 -11.8606,14.5 -0.4516,1.76153 -1.2801,5.00279 -1.8411,7.20279 -0.5609,2.2 -1.8788,5.92454 -2.9288,8.27675 -1.0499,2.35221 -1.9089,5.29971 -1.9089,6.55 0,1.25029 -0.4416,2.71489 -0.9814,3.25468 -0.5398,0.53979 -1.7654,5.57561 -2.7236,11.19072 -1.635,9.58167 -1.6383,10.31309 -0.054,11.89786 1.5047,1.50466 2.4087,1.55591 8.2997,0.47045 3.6361,-0.66998 8.2576,-2.10066 10.2701,-3.1793 2.0126,-1.07864 4.0505,-1.96116 4.5289,-1.96116 0.4784,0 2.8701,-1.35 5.315,-3 2.4448,-1.65 4.6899,-3 4.9891,-3 0.2991,0 3.1482,-1.98064 6.3314,-4.40142 3.1831,-2.42078 6.8533,-4.96537 8.1559,-5.65465 2.5285,-1.33788 15.1438,-11.93828 15.7018,-13.19393 0.1834,-0.4125 0.9358,-0.75 1.6721,-0.75 1.749,0 8.4946,-7.89666 8.4946,-9.94412 0,-0.87126 0.9416,-4.05276 2.0926,-7.07 1.1509,-3.01723 3.1864,-8.3934 4.5233,-11.94703 1.3369,-3.55363 3.0953,-7.4753 3.9074,-8.71482 0.8122,-1.23951 1.4767,-3.01079 1.4767,-3.93618 0,-2.04058 3.9898,-13.50954 5.1618,-14.83785 0.461,-0.5225 0.8382,-1.78174 0.8382,-2.79831 0,-1.01656 0.9,-3.71109 2,-5.98782 1.1,-2.27674 2,-4.7288 2,-5.44903 0,-0.72022 1.2798,-4.1232 2.8439,-7.56217 1.5642,-3.43897 3.6587,-8.16776 4.6545,-10.50842 0.9958,-2.34066 2.416,-4.75826 3.1561,-5.37244 0.74,-0.61419 1.3455,-1.9239 1.3455,-2.91048 0,-2.33809 9.0495,-15.83572 14.8091,-22.0883 4.9774,-5.40341 12.6176,-10.87303 15.188,-10.87303 0.9099,0 2.6327,1.04151 3.8286,2.31445 2.4486,2.60642 3.0056,10.37214 1.1024,15.37045 -0.5895,1.54831 -1.4982,5.06006 -2.0194,7.80389 -1.361,7.16575 -6.6132,20.32256 -11.781,29.51121 -0.464,0.825 -1.656,3.075 -2.649,5 -0.9929,1.925 -3.1943,5.27803 -4.892,7.45118 -1.6977,2.17315 -3.5367,4.74171 -4.0867,5.70791 -2.4181,4.248 -9.3504,13.74977 -13.3812,18.34091 -5.4798,6.24174 -11.1188,14.53171 -11.1188,16.34606 0,1.03853 0.913,1.20991 3.75,0.7039 14.0652,-2.50869 17.5669,-1.66091 23.6122,5.71662 4.3222,5.27459 5.6378,8.58212 5.6378,14.17352 0,8.05951 -1.0982,10.69744 -6.9925,16.79626 -4.7686,4.9341 -6.5949,6.10689 -11.5075,7.38977 -3.3437,0.87313 -8.6519,1.38576 -12.4197,1.19938 -6.3136,-0.31232 -6.5942,-0.22705 -6.9233,2.10374 -0.5016,3.55206 7.0622,17.76743 12.3444,23.19994 6.2319,6.40927 9.1704,7.48631 16.1584,5.92245 4.5939,-1.02806 6.8493,-2.39753 13.1908,-8.0094 4.2072,-3.72312 10.3212,-9.64321 13.5867,-13.15577 3.2655,-3.51256 8.7665,-9.3617 12.2245,-12.99809 3.458,-3.63639 7.9073,-9.01905 9.8874,-11.96145 6.8111,-10.12132 19.0615,-21.92693 22.753,-21.92693 2.8215,0 5.6978,2.84631 5.6978,5.63851 0,1.08957 -2.0077,4.33311 -4.4616,7.20788 -2.6213,3.07102 -4.7385,6.70328 -5.1331,8.80651 -0.6288,3.35195 0.7041,12.33562 2.4996,16.8471 5.7998,14.5726 6.3412,25.20945 1.9456,38.22255 -2.2727,6.72835 -7.824,13.55647 -12.4519,15.316 -4.3634,1.65895 -14.5649,1.15746 -17.9063,-0.88025 z m -53.1946,-64.50934 c 1.7785,-0.74308 4.689,-3.00874 6.4679,-5.0348 2.561,-2.91681 3.2313,-4.56135 3.2197,-7.89896 -0.02,-5.79108 -1.8342,-8.88136 -6.5125,-11.09521 -3.5829,-1.69551 -4.6107,-1.75788 -10.4728,-0.63562 -5.7259,1.0962 -7.1273,1.85393 -11.7673,6.36295 -9.2785,9.01643 -9.0053,15.78103 0.7673,19.00061 3.1803,1.04776 15.2177,0.58793 18.2977,-0.69897 z M 2363.2834,479.591 c 2.0313,-1.64969 9.9029,-12.28474 10.7067,-14.46548 0.3554,-0.964 1.7683,-3.24561 3.1399,-5.07025 1.3716,-1.82465 3.4568,-5.19965 4.6339,-7.5 1.1771,-2.30036 2.6411,-5.08247 3.2535,-6.18247 1.0921,-1.9619 5.1247,-10.59027 9.1136,-19.5 1.1081,-2.475 2.7569,-6.975 3.664,-10 0.9071,-3.025 2.0631,-6.53367 2.5688,-7.79705 1.3807,-3.44889 1.1103,-8.19254 -0.5023,-8.81134 -1.6501,-0.6332 -5.5781,1.22674 -5.5781,2.64126 0,0.52938 -1.575,3.15479 -3.5,5.83425 -1.925,2.67946 -3.5,5.1892 -3.5,5.57721 0,0.388 -2.025,3.83579 -4.5,7.66175 -2.475,3.82596 -4.51,7.50476 -4.5222,8.17511 -0.012,0.67034 -0.9023,2.34381 -1.9778,3.71881 -1.0755,1.375 -1.9655,3.1975 -1.9778,4.05 -0.012,0.8525 -0.3978,1.9775 -0.8569,2.5 -0.4591,0.5225 -1.6459,3.2 -2.6374,5.95 -2.9519,8.18747 -8.5878,22.85223 -9.608,25 -3.6145,7.60952 -2.5157,11.95059 2.0801,8.2182 z m 77.5215,-7.75222 c 1.4006,-2.21871 3.2396,-4.80621 4.0866,-5.75 3.4336,-3.8259 14.2591,-19.22227 14.871,-21.14998 0.3606,-1.1363 1.0754,-2.066 1.5883,-2.066 0.5129,0 0.9326,-1.035 0.9326,-2.3 0,-1.265 0.4226,-2.7275 0.9391,-3.25 1.0967,-1.10938 6.9329,-16.44486 8.0772,-21.224 1.8556,-7.74995 -2.0933,-9.57684 -7.6314,-3.53058 -1.8617,2.03248 -3.3849,4.0889 -3.3849,4.56983 0,0.48092 -1.2884,2.75548 -2.863,5.05458 -1.5747,2.29909 -3.1671,5.15204 -3.5387,6.33987 -0.3717,1.18783 -1.3333,2.70543 -2.137,3.37244 -0.8037,0.66701 -1.4613,2.03104 -1.4613,3.03118 0,1.69859 -2.4608,7.32525 -12.1,27.66664 -4.2987,9.07124 -4.7809,11.89319 -2.15,12.58071 0.9625,0.25153 1.8569,0.50953 1.9875,0.57333 0.1306,0.0638 1.3834,-1.69931 2.784,-3.91802 z m 127.4835,92.65004 c 0,-3.8444 1.6972,-11.1851 3.0412,-13.11602 0.3829,-0.55 1.2892,-3.3625 2.014,-6.25 0.7248,-2.8875 1.6828,-5.25 2.1288,-5.25 0.4461,0 0.8127,-1.2375 0.8147,-2.75 0,-1.5125 0.9021,-4.22338 2,-6.02417 1.098,-1.80079 1.9963,-4.01835 1.9963,-4.9279 0,-0.90956 1.3997,-6.18618 3.1104,-11.72583 3.2043,-10.37604 3.8637,-12.29648 5.6897,-16.5721 0.5872,-1.375 1.6098,-4.3 2.2724,-6.5 0.6625,-2.2 1.5609,-4.9 1.9964,-6 0.4355,-1.1 1.3059,-3.68123 1.9344,-5.73607 0.6284,-2.05484 1.5598,-3.9939 2.0697,-4.30902 0.5098,-0.31512 0.927,-1.79055 0.927,-3.27874 0,-1.48818 0.9,-4.38499 2,-6.43735 1.1,-2.05237 2,-4.5432 2,-5.5352 0,-0.99199 0.3798,-2.23112 0.8441,-2.75362 0.4642,-0.5225 1.866,-3.65 3.115,-6.95 1.2489,-3.3 3.1191,-7.90759 4.1559,-10.2391 1.0367,-2.3315 1.885,-4.694 1.885,-5.25 0,-0.55599 0.45,-1.0109 1,-1.0109 0.55,0 1,-0.84574 1,-1.87942 0,-2.46854 7.4674,-10.12058 9.8764,-10.12058 5.9836,0 4.7946,7.76782 -4.3626,28.5 -0.7288,1.65 -2.1013,5.13111 -3.0499,7.73581 -0.9486,2.6047 -2.3411,5.2473 -3.0943,5.87244 -0.7533,0.62515 -1.3696,1.98765 -1.3696,3.02776 0,1.04012 -0.379,2.67252 -0.8423,3.62756 -0.4633,0.95504 -1.8483,3.98643 -3.078,6.73643 -1.2296,2.75 -3.0772,6.8 -4.1058,9 -1.0286,2.2 -2.6149,6.34587 -3.5251,9.21305 -0.9102,2.86718 -2.2835,5.73478 -3.0518,6.37245 -0.7684,0.63766 -1.397,2.20273 -1.397,3.47793 0,1.27519 -0.45,2.59665 -1,2.93657 -0.55,0.33992 -1,1.25777 -1,2.03966 0,0.7819 -1.7326,5.14284 -3.8502,9.69099 -2.1176,4.54814 -4.4545,9.84435 -5.1931,11.76935 -0.7387,1.925 -2.1561,4.97619 -3.1498,6.78042 -0.9938,1.80423 -1.8069,3.94783 -1.8069,4.76357 0,0.81573 -0.3987,2.26454 -0.886,3.21958 -1.3166,2.58034 -4.9252,11.44235 -5.5934,13.73643 -0.3204,1.1 -1.6914,3.35 -3.0466,5 l -2.4641,3 0,-3.88398 z m -760.005,-85.26963 c 0,-2.98042 -0.737,-4.33402 -4,-7.34639 -4.7988,-4.43021 -5.0579,-7.0959 -1.0769,-11.07692 3.6021,-3.60209 6.0205,-3.68291 10.0002,-0.33419 2.8079,2.36271 3.0767,3.1146 3.0767,8.6061 0,5.21381 -0.4118,6.5371 -3.084,9.91111 -1.6962,2.14164 -3.4962,3.8939 -4,3.8939 -0.5038,0 -0.916,-1.64412 -0.916,-3.65361 z m 375,-50.65091 c -1.375,-0.64303 -3.3723,-1.96258 -4.4386,-2.93232 -1.0662,-0.96974 -2.2711,-1.76316 -2.6776,-1.76316 -0.4064,0 -2.3466,-2.64636 -4.3114,-5.88081 -3.3147,-5.4565 -3.5724,-6.46236 -3.5724,-13.94098 0,-4.43309 0.3919,-8.30237 0.8708,-8.59838 0.479,-0.29602 1.1378,-1.87287 1.4641,-3.50412 0.7992,-3.99634 11.7117,-14.93503 15.6937,-15.73143 1.6572,-0.33143 3.2552,-0.99448 3.5512,-1.47344 0.296,-0.47896 1.5467,-0.87084 2.7792,-0.87084 1.2326,0 2.6685,-0.39723 3.191,-0.88275 1.9109,-1.77559 17.6377,-3.15551 46.95,-4.11954 16.5,-0.54266 34.05,-1.43114 39,-1.97441 4.95,-0.54327 11.5936,-0.99576 14.7636,-1.00553 3.1699,-0.01 6.5449,-0.41461 7.5,-0.89964 0.955,-0.48503 3.8804,-1.38503 6.5008,-2 8.7683,-2.05782 9.594,-1.30431 4.6904,4.2806 -3.3143,3.77477 -11.4854,7.01298 -20.4548,8.10629 -2.75,0.33521 -7.0481,1.05714 -9.5513,1.6043 -2.5032,0.54716 -20.2782,1.14286 -39.5,1.32378 -48.5025,0.45651 -49.1411,0.5637 -58.1469,9.75918 -5.7982,5.9203 -8.0788,11.85251 -6.9237,18.00958 0.7965,4.24581 7.9497,11.79814 11.1745,11.79814 2.3835,0 7.4474,4.86155 7.4474,7.14973 0,4.3333 -9.7132,6.48585 -16,3.54575 z"
         id="path3092"
         inkscape:connector-curvature="0" />
    </g>
  </g>
</svg>
